<svg width="693" height="649" viewBox="0 0 693 649" fill="none" xmlns="http://www.w3.org/2000/svg">
<path d="M62.5 43.3094C64.9752 41.8803 68.0248 41.8803 70.5 43.3094L110.564 66.4406C113.04 67.8697 114.564 70.5107 114.564 73.3688V119.631C114.564 122.489 113.04 125.13 110.564 126.559L70.5 149.691C68.0248 151.12 64.9752 151.12 62.5 149.691L22.4356 126.559C19.9604 125.13 18.4356 122.489 18.4356 119.631V73.3688C18.4356 70.5107 19.9604 67.8697 22.4356 66.4406L62.5 43.3094Z" fill="#EBF2FC"/>
<path d="M120 1.1547C121.238 0.440169 122.762 0.440169 124 1.1547L144.249 12.8453C145.486 13.5598 146.249 14.8803 146.249 16.3094V39.6906C146.249 41.1197 145.486 42.4402 144.249 43.1547L124 54.8453C122.762 55.5598 121.238 55.5598 120 54.8453L99.7513 43.1547C98.5137 42.4402 97.7513 41.1197 97.7513 39.6906V16.3094C97.7513 14.8803 98.5137 13.5598 99.7513 12.8453L120 1.1547Z" fill="#EBF2FC"/>
<path d="M170 82.2608V82.2608C170 66.7968 182.536 54.2608 198 54.2608H324.87C337.92 54.2608 348.5 43.6811 348.5 30.6304V30.6304C348.5 17.5797 359.08 7.00001 372.13 7.00001H515C531.569 7.00001 545 20.4315 545 37V82.2608" stroke="#EBF2FC" stroke-width="4"/>
<path d="M552.599 25.6603C561.881 20.3013 573.317 20.3013 582.599 25.6603L661.199 71.0401C670.481 76.3991 676.199 86.3029 676.199 97.0209V187.781C676.199 198.499 670.481 208.402 661.199 213.761L582.599 259.141C573.317 264.5 561.881 264.5 552.599 259.141L473.999 213.761C464.717 208.402 458.999 198.499 458.999 187.781V97.0209C458.999 86.3029 464.717 76.3991 473.999 71.0401L552.599 25.6603Z" fill="#EBF2FC"/>
<path fill-rule="evenodd" clip-rule="evenodd" d="M488.943 239.283C488.943 241.604 490.182 243.751 492.195 244.913C496.775 247.56 505.024 252.321 509.114 254.683C509.618 254.971 510.236 254.971 510.74 254.683C511.244 254.394 511.553 253.853 511.553 253.276C511.553 248.589 511.553 239.181 511.553 233.937C511.553 231.611 510.313 229.465 508.301 228.302C503.721 225.659 495.473 220.895 491.382 218.533C490.878 218.244 490.258 218.244 489.756 218.533C489.252 218.825 488.943 219.362 488.943 219.943L488.943 239.283Z" fill="#C8D8EC"/>
<path fill-rule="evenodd" clip-rule="evenodd" d="M461.471 223.429C461.471 225.755 462.711 227.901 464.724 229.064C469.299 231.702 477.533 236.459 481.62 238.817C482.123 239.11 482.743 239.11 483.247 238.817C483.75 238.528 484.06 237.992 484.06 237.41C484.06 232.723 484.06 223.315 484.06 218.071C484.06 215.745 482.82 213.599 480.807 212.436C476.232 209.798 467.998 205.041 463.911 202.683C463.408 202.394 462.788 202.394 462.284 202.683C461.781 202.972 461.471 203.508 461.471 204.09C461.471 208.777 461.471 218.181 461.471 223.429Z" fill="#C8D8EC"/>
<path fill-rule="evenodd" clip-rule="evenodd" d="M488.943 207.75C488.943 210.071 490.182 212.218 492.195 213.38C496.775 216.027 505.024 220.788 509.114 223.15C509.618 223.438 510.236 223.438 510.74 223.15C511.244 222.857 511.553 222.32 511.553 221.739C511.553 217.019 511.553 207.506 511.553 202.221C511.553 199.895 510.313 197.749 508.301 196.586C503.72 193.943 495.473 189.183 491.381 186.821C490.878 186.532 490.259 186.532 489.755 186.821C489.252 187.114 488.943 187.65 488.943 188.232C488.943 192.952 488.943 202.465 488.943 207.75Z" fill="#C8D8EC"/>
<path fill-rule="evenodd" clip-rule="evenodd" d="M434 207.567C434 209.892 435.24 212.039 437.252 213.202C441.83 215.844 450.069 220.601 454.158 222.959C454.661 223.251 455.281 223.251 455.784 222.959C456.288 222.67 456.597 222.133 456.597 221.552C456.597 216.865 456.597 207.461 456.597 202.213C456.597 199.891 455.358 197.745 453.345 196.582C448.768 193.94 440.529 189.183 436.439 186.821C435.936 186.532 435.316 186.532 434.813 186.821C434.31 187.114 434 187.65 434 188.232C434 192.919 434 202.323 434 207.567Z" fill="#C8D8EC"/>
<path fill-rule="evenodd" clip-rule="evenodd" d="M461.471 191.883C461.471 194.208 462.711 196.355 464.724 197.517C469.299 200.16 477.533 204.912 481.62 207.27C482.123 207.563 482.743 207.563 483.247 207.27C483.75 206.982 484.06 206.445 484.06 205.864C484.06 201.144 484.06 191.631 484.06 186.346C484.06 184.02 482.819 181.874 480.807 180.711C476.231 178.072 467.998 173.32 463.911 170.962C463.407 170.669 462.788 170.669 462.284 170.962C461.781 171.25 461.471 171.787 461.471 172.368C461.471 177.088 461.471 186.598 461.471 191.883Z" fill="#C8D8EC"/>
<path fill-rule="evenodd" clip-rule="evenodd" d="M539.043 152.857C539.043 150.531 537.803 148.385 535.791 147.222C531.21 144.58 522.962 139.819 518.872 137.457C518.368 137.164 517.75 137.164 517.246 137.457C516.742 137.745 516.433 138.282 516.433 138.863C516.433 143.62 516.433 153.247 516.433 158.573C516.433 160.897 517.673 163.045 519.685 164.207C524.265 166.851 532.513 171.613 536.604 173.975C537.107 174.265 537.727 174.265 538.23 173.975C538.734 173.685 539.043 173.148 539.043 172.567C539.043 167.81 539.043 158.183 539.043 152.857Z" fill="#C8D8EC"/>
<path fill-rule="evenodd" clip-rule="evenodd" d="M434 176.016C434 178.342 435.24 180.488 437.253 181.651C441.83 184.293 450.069 189.05 454.158 191.412C454.661 191.701 455.281 191.701 455.784 191.412C456.288 191.119 456.597 190.583 456.597 190.001C456.597 185.281 456.597 175.772 456.597 170.487C456.597 168.166 455.357 166.017 453.345 164.855C448.767 162.213 440.528 157.458 436.439 155.098C435.936 154.808 435.316 154.808 434.813 155.098C434.31 155.389 434 155.925 434 156.506C434 161.226 434 170.735 434 176.016Z" fill="#C8D8EC"/>
<path fill-rule="evenodd" clip-rule="evenodd" d="M461.471 160.16C461.471 162.484 462.712 164.632 464.724 165.794C469.3 168.434 477.533 173.187 481.62 175.545C482.124 175.837 482.743 175.837 483.247 175.545C483.75 175.256 484.06 174.719 484.06 174.138C484.06 169.381 484.06 159.751 484.06 154.424C484.06 152.1 482.82 149.953 480.807 148.791C476.232 146.149 467.998 141.396 463.911 139.036C463.408 138.745 462.788 138.745 462.284 139.036C461.781 139.326 461.471 139.863 461.471 140.444C461.471 145.202 461.471 154.833 461.471 160.16Z" fill="#C8D8EC"/>
<path fill-rule="evenodd" clip-rule="evenodd" d="M519.693 228.31C517.68 229.468 516.44 231.619 516.44 233.94C516.44 239.189 516.44 248.592 516.44 253.28C516.44 253.857 516.749 254.398 517.254 254.686C517.758 254.975 518.376 254.975 518.88 254.686C522.97 252.324 531.21 247.568 535.784 244.925C537.796 243.762 539.036 241.616 539.036 239.29C539.036 234.046 539.036 224.643 539.036 219.955C539.036 219.374 538.727 218.837 538.223 218.548C537.723 218.256 537.101 218.256 536.597 218.548C532.511 220.906 524.271 225.667 519.693 228.31Z" fill="#A6B7CA"/>
<path fill-rule="evenodd" clip-rule="evenodd" d="M547.164 212.454C545.152 213.612 543.912 215.763 543.912 218.084C543.912 223.333 543.912 232.736 543.912 237.424C543.912 238.005 544.225 238.542 544.725 238.83C545.229 239.119 545.851 239.119 546.351 238.83C550.441 236.472 558.673 231.716 563.247 229.077C565.264 227.915 566.499 225.768 566.499 223.443C566.499 218.198 566.499 208.791 566.499 204.107C566.499 203.522 566.19 202.989 565.686 202.697C565.186 202.408 564.564 202.408 564.06 202.697C559.974 205.055 551.742 209.811 547.164 212.454Z" fill="#A6B7CA"/>
<path fill-rule="evenodd" clip-rule="evenodd" d="M519.693 196.596C517.68 197.758 516.441 199.905 516.441 202.23C516.441 207.511 516.441 217.02 516.441 221.74C516.441 222.322 516.749 222.858 517.254 223.147C517.758 223.44 518.376 223.44 518.88 223.147C522.97 220.789 531.21 216.033 535.784 213.386C537.796 212.227 539.036 210.081 539.036 207.755C539.036 202.47 539.036 192.965 539.036 188.245C539.036 187.664 538.727 187.127 538.223 186.834C537.723 186.546 537.101 186.546 536.597 186.834C532.511 189.196 524.271 193.953 519.693 196.596Z" fill="#A6B7CA"/>
<path fill-rule="evenodd" clip-rule="evenodd" d="M593.995 188.232C593.995 187.65 593.686 187.114 593.182 186.821C592.682 186.532 592.06 186.532 591.556 186.821C587.466 189.183 579.217 193.948 574.635 196.59C572.623 197.753 571.383 199.9 571.383 202.225C571.383 207.469 571.383 216.873 571.383 221.56C571.383 222.142 571.696 222.678 572.196 222.967C572.7 223.26 573.322 223.26 573.822 222.967C577.916 220.605 586.165 215.844 590.743 213.202C592.755 212.039 593.995 209.892 593.995 207.567C593.995 202.323 593.995 192.919 593.995 188.232Z" fill="#A6B7CA"/>
<path fill-rule="evenodd" clip-rule="evenodd" d="M547.164 180.728C545.152 181.891 543.912 184.038 543.912 186.363L543.912 205.873C543.912 206.455 544.225 206.991 544.725 207.28C545.229 207.573 545.851 207.573 546.351 207.28C550.441 204.922 558.673 200.169 563.247 197.527C565.264 196.364 566.499 194.218 566.499 191.892L566.499 172.382C566.499 171.801 566.19 171.264 565.686 170.975C565.186 170.683 564.564 170.683 564.06 170.975C559.974 173.333 551.742 178.09 547.164 180.728Z" fill="#A6B7CA"/>
<path fill-rule="evenodd" clip-rule="evenodd" d="M508.293 164.215C510.306 163.053 511.545 160.905 511.545 158.581C511.545 153.255 511.545 143.62 511.545 138.859C511.545 138.278 511.237 137.741 510.732 137.452C510.228 137.16 509.61 137.16 509.106 137.452C505.016 139.814 496.776 144.571 492.202 147.214C490.19 148.376 488.95 150.523 488.95 152.844C488.95 158.174 488.95 167.808 488.95 172.567C488.95 173.148 489.259 173.685 489.763 173.975C490.263 174.266 490.885 174.266 491.389 173.975C495.475 171.614 503.715 166.857 508.293 164.215Z" fill="#A6B7CA"/>
<path fill-rule="evenodd" clip-rule="evenodd" d="M574.635 164.867C572.623 166.029 571.383 168.178 571.383 170.499C571.383 175.784 571.383 185.289 571.383 190.009C571.383 190.591 571.696 191.127 572.196 191.42C572.7 191.709 573.322 191.709 573.822 191.42C577.916 189.058 586.165 184.293 590.743 181.651C592.755 180.488 593.995 178.341 593.995 176.016C593.995 170.735 593.995 161.227 593.995 156.507C593.995 155.926 593.686 155.389 593.182 155.099C592.682 154.808 592.06 154.808 591.556 155.099C587.466 157.461 579.217 162.223 574.635 164.867Z" fill="#A6B7CA"/>
<path fill-rule="evenodd" clip-rule="evenodd" d="M547.164 148.804C545.152 149.966 543.912 152.113 543.912 154.437C543.912 159.765 543.912 169.399 543.912 174.159C543.912 174.741 544.225 175.277 544.725 175.566C545.229 175.859 545.851 175.859 546.351 175.566C550.441 173.208 558.673 168.451 563.247 165.811C565.264 164.649 566.499 162.502 566.499 160.178C566.499 154.85 566.499 145.216 566.499 140.457C566.499 139.876 566.19 139.339 565.686 139.049C565.186 138.758 564.564 138.758 564.06 139.049C559.974 141.409 551.742 146.163 547.164 148.804Z" fill="#A6B7CA"/>
<path fill-rule="evenodd" clip-rule="evenodd" d="M548.764 116.139C548.26 116.43 547.951 116.967 547.951 117.548C547.951 118.129 548.26 118.666 548.764 118.956C552.854 121.318 565.672 128.721 565.672 128.721L565.68 106.371C565.68 106.371 552.854 113.777 548.764 116.139Z" fill="#A6B7CA"/>
<path fill-rule="evenodd" clip-rule="evenodd" d="M434 144.302C434 146.626 435.24 148.774 437.253 149.935C441.831 152.578 450.07 157.333 454.159 159.693C454.661 159.984 455.281 159.984 455.785 159.693C456.288 159.403 456.597 158.866 456.597 158.285C456.597 153.526 456.597 143.895 456.597 138.567C456.597 136.243 455.358 134.096 453.345 132.934C448.768 130.291 440.529 125.534 436.439 123.173C435.936 122.883 435.316 122.883 434.813 123.173C434.31 123.464 434 124.001 434 124.582C434 129.341 434 138.974 434 144.302Z" fill="#57A3FF"/>
<path fill-rule="evenodd" clip-rule="evenodd" d="M438.879 116.134C438.376 116.424 438.066 116.961 438.066 117.542C438.066 118.123 438.376 118.659 438.879 118.95C442.967 121.31 451.201 126.064 455.776 128.705C457.788 129.867 460.268 129.867 462.281 128.705C466.858 126.063 475.097 121.306 479.186 118.945C479.689 118.654 479.999 118.118 479.999 117.536C479.999 116.955 479.689 116.419 479.186 116.128C475.099 113.768 466.865 109.015 462.29 106.373C460.277 105.211 457.798 105.211 455.785 106.373C451.207 109.015 442.968 113.772 438.879 116.134Z" fill="#9FCDFF"/>
<path fill-rule="evenodd" clip-rule="evenodd" d="M534.138 181.015C534.641 180.724 534.951 180.188 534.951 179.607C534.951 179.026 534.641 178.489 534.138 178.198C530.047 175.836 521.803 171.077 517.225 168.434C515.213 167.272 512.733 167.272 510.72 168.434C506.143 171.076 497.902 175.833 493.816 178.194C493.312 178.485 493.003 179.022 493.003 179.603C493.003 180.184 493.312 180.721 493.816 181.011C497.906 183.372 506.147 188.132 510.728 190.775C512.741 191.937 515.221 191.937 517.233 190.775C521.811 188.133 530.048 183.376 534.138 181.015Z" fill="white"/>
<path fill-rule="evenodd" clip-rule="evenodd" d="M590.743 149.938L571.383 138.577C571.383 138.577 571.383 153.538 571.383 158.298C571.383 158.879 571.696 159.415 572.196 159.706C572.7 159.996 573.322 159.996 573.822 159.706C577.916 157.344 590.743 149.938 590.743 149.938Z" fill="white"/>
<path fill-rule="evenodd" clip-rule="evenodd" d="M521.293 132.004C520.793 132.294 520.48 132.831 520.48 133.412C520.48 133.993 520.793 134.53 521.293 134.82C525.387 137.182 533.627 141.941 538.205 144.585C540.217 145.747 542.697 145.747 544.71 144.585C549.287 141.943 557.52 137.189 561.606 134.83C562.11 134.539 562.419 134.002 562.419 133.421C562.419 132.84 562.11 132.303 561.606 132.013C557.516 129.651 549.275 124.892 544.698 122.248C542.681 121.086 540.205 121.086 538.193 122.248C533.615 124.89 525.383 129.644 521.293 132.004Z" fill="white"/>
<path fill-rule="evenodd" clip-rule="evenodd" d="M466.35 131.996C465.847 132.286 465.537 132.823 465.537 133.404C465.537 133.985 465.847 134.522 466.35 134.812C470.44 137.174 478.684 141.933 483.262 144.577C485.275 145.739 487.755 145.739 489.767 144.577C494.344 141.934 502.584 137.177 506.672 134.816C507.176 134.526 507.485 133.989 507.485 133.408C507.485 132.827 507.176 132.29 506.672 132C502.583 129.638 494.339 124.879 489.761 122.235C487.748 121.073 485.268 121.073 483.256 122.235C478.679 124.878 470.439 129.635 466.35 131.996Z" fill="white"/>
<path fill-rule="evenodd" clip-rule="evenodd" d="M493.821 116.128C493.318 116.419 493.008 116.955 493.008 117.536C493.008 118.118 493.318 118.654 493.821 118.945C497.912 121.307 506.155 126.066 510.733 128.709C512.745 129.871 515.225 129.871 517.237 128.709C521.815 126.068 530.048 121.314 534.137 118.954C534.637 118.664 534.95 118.127 534.95 117.546C534.95 116.965 534.637 116.428 534.137 116.137C530.043 113.776 521.803 109.016 517.221 106.373C515.209 105.211 512.729 105.211 510.716 106.373C506.143 109.015 497.909 113.768 493.821 116.128Z" fill="white"/>
<path fill-rule="evenodd" clip-rule="evenodd" d="M521.293 100.279C520.793 100.569 520.48 101.106 520.48 101.687C520.48 102.268 520.793 102.805 521.293 103.096C525.387 105.457 533.627 110.217 538.209 112.86C540.222 114.022 542.697 114.022 544.714 112.86C549.292 110.216 557.54 105.454 561.63 103.092C562.134 102.801 562.443 102.264 562.443 101.683C562.443 101.102 562.134 100.566 561.63 100.275C557.54 97.9134 549.296 93.1544 544.718 90.5106C542.706 89.3487 540.226 89.3487 538.213 90.5106C533.635 93.1552 525.387 97.9167 521.293 100.279Z" fill="white"/>
<path fill-rule="evenodd" clip-rule="evenodd" d="M466.35 100.279C465.847 100.57 465.537 101.107 465.537 101.688C465.537 102.269 465.847 102.806 466.35 103.096C470.438 105.456 478.672 110.21 483.247 112.851C485.259 114.013 487.739 114.013 489.752 112.851C494.327 110.21 502.561 105.456 506.647 103.096C507.151 102.806 507.46 102.269 507.46 101.688C507.46 101.107 507.151 100.57 506.647 100.279C502.561 97.9195 494.327 93.1657 489.752 90.524C487.739 89.3621 485.259 89.3621 483.247 90.524C478.672 93.1657 470.438 97.9195 466.35 100.279Z" fill="white"/>
<path fill-rule="evenodd" clip-rule="evenodd" d="M493.821 84.4169C493.318 84.7076 493.008 85.2442 493.008 85.8256C493.008 86.4065 493.318 86.9432 493.821 87.2339C497.909 89.5935 506.143 94.3472 510.716 96.9889C512.729 98.1508 515.209 98.1508 517.221 96.9889C521.803 94.3443 530.052 89.5829 534.141 87.2205C534.646 86.9302 534.955 86.3932 534.955 85.8122C534.955 85.2312 534.646 84.6942 534.141 84.4039C530.056 82.0439 521.819 77.2902 517.245 74.6488C515.233 73.4865 512.753 73.4865 510.741 74.6488C506.159 77.293 497.913 82.0545 493.821 84.4169Z" fill="white"/>
<path fill-rule="evenodd" clip-rule="evenodd" d="M621.389 102.813C619.132 104.116 617.741 106.525 617.741 109.133C617.741 115.108 617.741 125.917 617.741 131.257C617.741 131.91 618.087 132.512 618.653 132.835C619.218 133.164 619.912 133.164 620.477 132.835C625.065 130.186 634.31 124.85 639.441 121.885C641.698 120.581 643.089 118.173 643.089 115.568C643.089 109.589 643.089 98.782 643.089 93.4432C643.089 92.791 642.743 92.189 642.177 91.8629C641.616 91.5372 640.919 91.5372 640.353 91.8629C635.769 94.5118 626.525 99.8483 621.389 102.813Z" fill="#30B01E"/>
<path fill-rule="evenodd" clip-rule="evenodd" d="M586.899 115.554C586.899 118.162 588.29 120.57 590.548 121.875C595.687 124.839 604.94 130.18 609.528 132.83C610.094 133.158 610.787 133.158 611.353 132.83C611.918 132.506 612.265 131.904 612.265 131.252C612.265 125.916 612.265 115.116 612.265 109.141C612.265 106.533 610.874 104.124 608.616 102.821C603.478 99.854 594.226 94.5124 589.636 91.8621C589.071 91.5365 588.376 91.5365 587.811 91.8621C587.247 92.1882 586.899 92.7903 586.899 93.442C586.899 98.779 586.899 109.579 586.899 115.554Z" fill="#47CF34"/>
<path fill-rule="evenodd" clip-rule="evenodd" d="M592.384 83.9654C591.82 84.2915 591.472 84.8935 591.472 85.5453C591.472 86.197 591.82 86.7995 592.384 87.1251C596.973 89.7749 606.222 95.1138 611.358 98.0796C613.615 99.3831 616.397 99.3831 618.655 98.0796C623.79 95.1147 633.035 89.7782 637.618 87.1297C638.184 86.8041 638.531 86.2016 638.531 85.5498C638.531 84.8981 638.184 84.2956 637.618 83.97C633.03 81.3206 623.786 75.9813 618.646 73.0159C616.388 71.7125 613.606 71.7125 611.348 73.0159C606.213 75.9804 596.972 81.317 592.384 83.9654Z" fill="#77F565"/>
<path fill-rule="evenodd" clip-rule="evenodd" d="M674.9 147.125C673.555 147.901 672.726 149.336 672.726 150.889C672.726 154.448 672.726 160.886 672.726 164.067C672.726 164.455 672.933 164.814 673.27 165.007C673.606 165.202 674.019 165.202 674.356 165.007C677.089 163.428 682.595 160.25 685.651 158.484C686.996 157.708 687.824 156.273 687.824 154.722C687.824 151.161 687.824 144.724 687.824 141.544C687.824 141.156 687.618 140.797 687.281 140.603C686.947 140.409 686.531 140.409 686.195 140.603C683.465 142.18 677.958 145.359 674.9 147.125Z" fill="#287EE7"/>
<path fill-rule="evenodd" clip-rule="evenodd" d="M654.356 154.713C654.356 156.267 655.185 157.702 656.53 158.478C659.591 160.244 665.102 163.425 667.835 165.003C668.172 165.199 668.584 165.199 668.921 165.003C669.258 164.811 669.465 164.452 669.465 164.064C669.465 160.885 669.465 154.453 669.465 150.894C669.465 149.341 668.636 147.906 667.291 147.13C664.231 145.363 658.72 142.181 655.986 140.602C655.65 140.409 655.236 140.409 654.9 140.602C654.563 140.797 654.356 141.155 654.356 141.543C654.356 144.722 654.356 151.155 654.356 154.713Z" fill="#57A3FF"/>
<path fill-rule="evenodd" clip-rule="evenodd" d="M657.624 135.899C657.288 136.093 657.08 136.452 657.08 136.84C657.08 137.228 657.288 137.587 657.624 137.781C660.357 139.359 665.866 142.539 668.924 144.306C670.269 145.082 671.926 145.082 673.271 144.306C676.329 142.54 681.836 139.361 684.566 137.784C684.903 137.59 685.109 137.231 685.109 136.843C685.109 136.454 684.903 136.096 684.566 135.902C681.833 134.324 676.327 131.143 673.265 129.377C671.921 128.601 670.264 128.601 668.919 129.377C665.86 131.143 660.356 134.321 657.624 135.899Z" fill="#9FCDFF"/>
<path d="M51.5 540.309C53.9752 538.88 57.0248 538.88 59.5 540.309L99.5644 563.441C102.04 564.87 103.564 567.511 103.564 570.369V616.631C103.564 619.489 102.04 622.13 99.5644 623.559L59.5 646.691C57.0248 648.12 53.9752 648.12 51.5 646.691L11.4356 623.559C8.96038 622.13 7.43559 619.489 7.43559 616.631V570.369C7.43559 567.511 8.96038 564.87 11.4356 563.441L51.5 540.309Z" fill="#EBF2FC"/>
<path d="M163 268V268C163 284.016 175.984 297 192 297H480.5C497.069 297 510.5 310.431 510.5 327V331" stroke="#EBF2FC" stroke-width="4"/>
<path d="M539.5 508V532.5C539.5 549.069 526.069 562.5 509.5 562.5H288C271.431 562.5 258 575.931 258 592.5V592.5C258 609.069 244.569 622.5 228 622.5H63.5" stroke="#EBF2FC" stroke-width="4"/>
</svg>
