<svg width="239" height="557" viewBox="0 0 239 557" fill="none" xmlns="http://www.w3.org/2000/svg">
<path d="M108.283 8.66025C117.565 3.30127 129.001 3.30127 138.283 8.66025L208.497 49.1984C217.779 54.5574 223.497 64.4612 223.497 75.1791V156.255C223.497 166.973 217.779 176.877 208.497 182.236L138.283 222.774C129.001 228.133 117.565 228.133 108.283 222.774L38.0686 182.236C28.7866 176.877 23.0686 166.973 23.0686 156.255V75.1791C23.0686 64.4612 28.7866 54.5574 38.0686 49.1984L108.283 8.66025Z" fill="#EBF2FC"/>
<path fill-rule="evenodd" clip-rule="evenodd" d="M50.6998 205.118C50.6998 207.26 51.8437 209.241 53.701 210.314C57.9275 212.756 65.5397 217.149 69.3137 219.329C69.7789 219.595 70.3491 219.595 70.8143 219.329C71.2795 219.062 71.5646 218.564 71.5646 218.031C71.5646 213.705 71.5646 205.024 71.5646 200.185C71.5646 198.039 70.4204 196.058 68.5634 194.985C64.337 192.547 56.7263 188.15 52.9507 185.97C52.4863 185.704 51.9142 185.704 51.4501 185.97C50.9857 186.24 50.6998 186.736 50.6998 187.272L50.6998 205.118Z" fill="#C8D8EC"/>
<path fill-rule="evenodd" clip-rule="evenodd" d="M25.3499 190.489C25.3499 192.635 26.4941 194.615 28.3511 195.688C32.5735 198.123 40.171 202.512 43.9432 204.688C44.4072 204.958 44.9794 204.958 45.4438 204.688C45.9079 204.422 46.1941 203.927 46.1941 203.39C46.1941 199.065 46.1941 190.384 46.1941 185.544C46.1941 183.398 45.0499 181.418 43.1925 180.345C38.9706 177.91 31.373 173.521 27.6008 171.345C27.1368 171.078 26.5647 171.078 26.1002 171.345C25.6362 171.611 25.3499 172.106 25.3499 172.643C25.3499 176.968 25.3499 185.646 25.3499 190.489Z" fill="#C8D8EC"/>
<path fill-rule="evenodd" clip-rule="evenodd" d="M50.6998 176.02C50.6998 178.162 51.8437 180.143 53.701 181.216C57.9275 183.658 65.5397 188.051 69.3137 190.231C69.7789 190.497 70.3491 190.497 70.8143 190.231C71.2795 189.961 71.5646 189.466 71.5646 188.929C71.5646 184.574 71.5646 175.795 71.5646 170.918C71.5646 168.772 70.4204 166.791 68.5634 165.718C64.3362 163.28 56.7259 158.887 52.9504 156.707C52.4863 156.441 51.9142 156.441 51.4498 156.707C50.9857 156.977 50.6998 157.473 50.6998 158.009C50.6998 162.365 50.6998 171.143 50.6998 176.02Z" fill="#C8D8EC"/>
<path fill-rule="evenodd" clip-rule="evenodd" d="M2.91509e-06 175.851C1.84283e-06 177.997 1.14421 179.978 3.00121 181.051C7.22505 183.49 14.8282 187.879 18.6015 190.055C19.066 190.325 19.6381 190.325 20.1021 190.055C20.5666 189.788 20.8524 189.293 20.8524 188.757C20.8524 184.431 20.8524 175.754 20.8524 170.911C20.8524 168.769 19.7086 166.788 17.8512 165.715C13.6274 163.276 6.02457 158.887 2.25092 156.707C1.78686 156.441 1.21475 156.441 0.750316 156.707C0.286253 156.978 1.20987e-05 157.473 1.18306e-05 158.009C9.66924e-06 162.335 5.33332e-06 171.012 2.91509e-06 175.851Z" fill="#C8D8EC"/>
<path fill-rule="evenodd" clip-rule="evenodd" d="M25.3499 161.378C25.3499 163.524 26.4941 165.505 28.3515 166.578C32.5735 169.016 40.171 173.402 43.9432 175.578C44.4073 175.848 44.9794 175.848 45.4438 175.578C45.9079 175.311 46.1941 174.816 46.1941 174.28C46.1941 169.924 46.1941 161.146 46.1941 156.269C46.1941 154.123 45.0495 152.142 43.1921 151.069C38.9698 148.634 31.3726 144.249 27.6008 142.073C27.1364 141.803 26.5647 141.803 26.1002 142.073C25.6362 142.339 25.3499 142.835 25.3499 143.371C25.3499 147.726 25.3499 156.501 25.3499 161.378Z" fill="#C8D8EC"/>
<path fill-rule="evenodd" clip-rule="evenodd" d="M96.9319 125.366C96.9319 123.22 95.7877 121.239 93.9303 120.166C89.7035 117.728 82.092 113.335 78.318 111.155C77.8528 110.885 77.2826 110.885 76.8174 111.155C76.3522 111.422 76.0671 111.917 76.0671 112.453C76.0671 116.843 76.0671 125.726 76.0671 130.641C76.0671 132.786 77.2113 134.767 79.0683 135.839C83.2948 138.28 90.9055 142.674 94.681 144.854C95.1454 145.121 95.7175 145.121 96.1816 144.854C96.646 144.585 96.9319 144.09 96.9319 143.554C96.9319 139.164 96.9319 130.28 96.9319 125.366Z" fill="#C8D8EC"/>
<path fill-rule="evenodd" clip-rule="evenodd" d="M0 146.737C-1.07227e-06 148.883 1.1442 150.864 3.00158 151.937C7.22541 154.375 14.8282 158.764 18.6015 160.944C19.066 161.21 19.6381 161.21 20.1021 160.944C20.5666 160.674 20.8524 160.179 20.8524 159.642C20.8524 155.287 20.8524 146.512 20.8524 141.635C20.8524 139.493 19.7082 137.51 17.8509 136.438C13.6266 134 6.0242 129.612 2.25092 127.434C1.78648 127.166 1.21475 127.166 0.750313 127.434C0.28625 127.702 9.26404e-06 128.197 8.99616e-06 128.733C6.81976e-06 133.089 2.4351e-06 141.864 0 146.737Z" fill="#C8D8EC"/>
<path fill-rule="evenodd" clip-rule="evenodd" d="M25.3499 132.105C25.3499 134.25 26.4945 136.232 28.3519 137.304C32.5742 139.74 40.1714 144.126 43.9432 146.302C44.4076 146.572 44.9794 146.572 45.4438 146.302C45.9079 146.035 46.1941 145.54 46.1941 145.004C46.1941 140.615 46.1941 131.728 46.1941 126.812C46.1941 124.668 45.0499 122.686 43.1929 121.614C38.9709 119.176 31.373 114.79 27.6008 112.612C27.1368 112.344 26.5647 112.344 26.1002 112.612C25.6362 112.88 25.3499 113.376 25.3499 113.912C25.3499 118.303 25.3499 127.189 25.3499 132.105Z" fill="#C8D8EC"/>
<path fill-rule="evenodd" clip-rule="evenodd" d="M79.0757 194.992C77.2187 196.062 76.0744 198.046 76.0744 200.188C76.0744 205.031 76.0744 213.709 76.0744 218.034C76.0744 218.567 76.3596 219.066 76.8247 219.332C77.2899 219.599 77.8602 219.599 78.3253 219.332C82.0994 217.153 89.7037 212.763 93.9241 210.325C95.7811 209.252 96.9254 207.271 96.9254 205.125C96.9254 200.286 96.9254 191.608 96.9254 187.283C96.9254 186.747 96.6403 186.251 96.1751 185.985C95.7136 185.715 95.1396 185.715 94.6745 185.985C90.9042 188.161 83.2999 192.554 79.0757 194.992Z" fill="#A6B7CA"/>
<path fill-rule="evenodd" clip-rule="evenodd" d="M104.426 180.361C102.569 181.43 101.424 183.415 101.424 185.557C101.424 190.4 101.424 199.077 101.424 203.403C101.424 203.939 101.713 204.434 102.175 204.701C102.64 204.967 103.214 204.967 103.675 204.701C107.449 202.525 115.046 198.136 119.267 195.701C121.127 194.628 122.268 192.647 122.268 190.501C122.268 185.662 122.268 176.981 122.268 172.659C122.268 172.119 121.983 171.627 121.518 171.357C121.056 171.091 120.482 171.091 120.017 171.357C116.247 173.533 108.65 177.922 104.426 180.361Z" fill="#A6B7CA"/>
<path fill-rule="evenodd" clip-rule="evenodd" d="M79.0757 165.727C77.2187 166.8 76.0745 168.781 76.0745 170.927C76.0745 175.8 76.0745 184.575 76.0745 188.93C76.0745 189.467 76.3596 189.962 76.8248 190.229C77.29 190.499 77.8602 190.499 78.3254 190.229C82.0994 188.053 89.7037 183.663 93.9242 181.221C95.7812 180.152 96.9254 178.171 96.9254 176.025C96.9254 171.148 96.9254 162.377 96.9254 158.022C96.9254 157.485 96.6403 156.99 96.1751 156.72C95.7137 156.454 95.1397 156.454 94.6745 156.72C90.9042 158.9 83.2999 163.289 79.0757 165.727Z" fill="#A6B7CA"/>
<path fill-rule="evenodd" clip-rule="evenodd" d="M147.64 158.009C147.64 157.473 147.355 156.978 146.89 156.708C146.428 156.441 145.855 156.441 145.389 156.708C141.615 158.887 134.003 163.284 129.775 165.722C127.918 166.795 126.774 168.776 126.774 170.922C126.774 175.761 126.774 184.439 126.774 188.764C126.774 189.301 127.063 189.796 127.525 190.062C127.99 190.332 128.564 190.332 129.025 190.062C132.803 187.883 140.415 183.49 144.639 181.051C146.496 179.978 147.64 177.997 147.64 175.852C147.64 171.012 147.64 162.335 147.64 158.009Z" fill="#A6B7CA"/>
<path fill-rule="evenodd" clip-rule="evenodd" d="M104.426 151.085C102.569 152.158 101.424 154.139 101.424 156.285L101.424 174.288C101.424 174.825 101.713 175.32 102.175 175.586C102.64 175.857 103.214 175.857 103.675 175.586C107.449 173.411 115.046 169.025 119.267 166.587C121.127 165.514 122.268 163.533 122.268 161.387L122.268 143.383C122.268 142.847 121.983 142.352 121.518 142.085C121.056 141.815 120.482 141.815 120.017 142.085C116.247 144.261 108.65 148.651 104.426 151.085Z" fill="#A6B7CA"/>
<path fill-rule="evenodd" clip-rule="evenodd" d="M68.5562 135.847C70.4132 134.775 71.5575 132.793 71.5575 130.648C71.5575 125.733 71.5575 116.842 71.5575 112.449C71.5575 111.913 71.2723 111.418 70.8072 111.151C70.342 110.881 69.7717 110.881 69.3066 111.151C65.5325 113.331 57.9282 117.72 53.7078 120.159C51.8508 121.232 50.7066 123.212 50.7066 125.354C50.7065 130.273 50.7065 139.162 50.7065 143.554C50.7065 144.09 50.9917 144.586 51.4568 144.854C51.9183 145.122 52.4923 145.122 52.9575 144.854C56.7277 142.675 64.332 138.285 68.5562 135.847Z" fill="#A6B7CA"/>
<path fill-rule="evenodd" clip-rule="evenodd" d="M129.776 136.449C127.919 137.521 126.774 139.504 126.774 141.646C126.774 146.523 126.774 155.294 126.774 159.65C126.774 160.186 127.063 160.681 127.525 160.951C127.99 161.218 128.564 161.218 129.025 160.951C132.803 158.772 140.415 154.375 144.639 151.937C146.496 150.864 147.64 148.883 147.64 146.737C147.64 141.864 147.64 133.09 147.64 128.735C147.64 128.198 147.355 127.703 146.89 127.435C146.429 127.167 145.855 127.167 145.389 127.435C141.615 129.615 134.004 134.009 129.776 136.449Z" fill="#A6B7CA"/>
<path fill-rule="evenodd" clip-rule="evenodd" d="M104.426 121.626C102.569 122.698 101.424 124.68 101.424 126.825C101.424 131.741 101.424 140.631 101.424 145.024C101.424 145.56 101.713 146.055 102.175 146.322C102.64 146.592 103.214 146.592 103.675 146.322C107.449 144.146 115.046 139.756 119.267 137.32C121.127 136.248 122.268 134.266 122.268 132.122C122.268 127.205 122.268 118.315 122.268 113.924C122.268 113.388 121.983 112.892 121.518 112.624C121.056 112.356 120.482 112.356 120.017 112.624C116.247 114.802 108.65 119.189 104.426 121.626Z" fill="#A6B7CA"/>
<path fill-rule="evenodd" clip-rule="evenodd" d="M105.902 91.4839C105.437 91.7521 105.152 92.2473 105.152 92.7834C105.152 93.3195 105.437 93.8151 105.902 94.0829C109.676 96.2622 121.504 103.094 121.504 103.094L121.512 82.4697C121.512 82.4697 109.676 89.3039 105.902 91.4839Z" fill="#A6B7CA"/>
<path fill-rule="evenodd" clip-rule="evenodd" d="M0 117.472C-1.0717e-06 119.616 1.14459 121.598 3.00197 122.67C7.22617 125.108 14.8286 129.496 18.6019 131.674C19.066 131.942 19.6381 131.942 20.1025 131.674C20.5666 131.406 20.8524 130.911 20.8524 130.375C20.8524 125.984 20.8524 117.096 20.8524 112.18C20.8524 110.035 19.7086 108.054 17.8512 106.982C13.6274 104.543 6.02457 100.153 2.25092 97.9746C1.78686 97.7064 1.21475 97.7064 0.750313 97.9746C0.28625 98.2428 9.36097e-06 98.738 9.09309e-06 99.2741C6.89869e-06 103.666 2.45684e-06 112.555 0 117.472Z" fill="#57A3FF"/>
<path fill-rule="evenodd" clip-rule="evenodd" d="M4.50226 91.4786C4.03819 91.7465 3.75195 92.2421 3.75195 92.7782C3.75195 93.3142 4.03819 93.8094 4.50226 94.0777C8.27441 96.2554 15.8724 100.642 20.0943 103.079C21.9513 104.152 24.2394 104.152 26.0967 103.079C30.3206 100.641 37.9234 96.2513 41.6971 94.0728C42.1611 93.8046 42.4474 93.3094 42.4474 92.7729C42.4474 92.2368 42.1611 91.7416 41.6971 91.4734C37.9249 89.296 30.3273 84.9094 26.105 82.4716C24.248 81.3994 21.9599 81.3994 20.1026 82.4716C15.8787 84.9101 8.27591 89.2998 4.50226 91.4786Z" fill="#9FCDFF"/>
<path fill-rule="evenodd" clip-rule="evenodd" d="M92.4051 151.35C92.8692 151.081 93.1554 150.586 93.1554 150.05C93.1554 149.514 92.8692 149.019 92.4051 148.751C88.6303 146.571 81.0226 142.179 76.7984 139.74C74.9414 138.668 72.653 138.668 70.796 139.74C66.5718 142.179 58.9675 146.568 55.1972 148.747C54.732 149.015 54.4469 149.51 54.4469 150.046C54.4469 150.583 54.732 151.078 55.1972 151.346C58.9712 153.525 66.5755 157.917 70.8035 160.356C72.6605 161.429 74.9489 161.429 76.8059 160.356C81.0301 157.918 88.6315 153.528 92.4051 151.35Z" fill="white"/>
<path fill-rule="evenodd" clip-rule="evenodd" d="M144.639 122.672L126.774 112.189C126.774 112.189 126.774 125.995 126.774 130.387C126.774 130.923 127.063 131.418 127.525 131.686C127.99 131.954 128.564 131.954 129.025 131.686C132.803 129.506 144.639 122.672 144.639 122.672Z" fill="white"/>
<path fill-rule="evenodd" clip-rule="evenodd" d="M80.552 106.123C80.0905 106.391 79.8017 106.887 79.8017 107.423C79.8017 107.959 80.0905 108.454 80.552 108.722C84.3297 110.902 91.9341 115.293 96.1583 117.733C98.0153 118.805 100.304 118.805 102.161 117.733C106.385 115.295 113.982 110.908 117.752 108.731C118.217 108.463 118.502 107.968 118.502 107.431C118.502 106.895 118.217 106.4 117.752 106.132C113.978 103.952 106.374 99.5607 102.15 97.1211C100.289 96.0489 98.0041 96.0489 96.1471 97.1211C91.9229 99.5588 84.326 103.945 80.552 106.123Z" fill="white"/>
<path fill-rule="evenodd" clip-rule="evenodd" d="M29.8521 106.116C29.3877 106.384 29.1018 106.879 29.1018 107.415C29.1018 107.952 29.3877 108.447 29.8521 108.715C33.6265 110.894 41.2335 115.286 45.4584 117.725C47.3158 118.798 49.6038 118.798 51.4608 117.725C55.6847 115.287 63.2879 110.897 67.06 108.719C67.5252 108.45 67.8103 107.955 67.8103 107.419C67.8103 106.883 67.5252 106.387 67.06 106.12C63.2868 103.94 55.6798 99.5485 51.4549 97.1089C49.5975 96.0367 47.3094 96.0367 45.4524 97.1089C41.2286 99.5477 33.6254 103.937 29.8521 106.116Z" fill="white"/>
<path fill-rule="evenodd" clip-rule="evenodd" d="M55.202 91.4733C54.7376 91.7416 54.4517 92.2368 54.4517 92.7729C54.4517 93.3093 54.7376 93.8045 55.202 94.0728C58.9764 96.252 66.583 100.644 70.8072 103.083C72.6642 104.155 74.9527 104.155 76.8097 103.083C81.0339 100.645 88.6307 96.2588 92.4048 94.081C92.8662 93.8132 93.1551 93.3176 93.1551 92.7815C93.1551 92.2454 92.8662 91.7502 92.4048 91.482C88.627 89.3027 81.0226 84.9108 76.7946 82.4716C74.9376 81.3994 72.6492 81.3994 70.7922 82.4716C66.5718 84.9093 58.9738 89.296 55.202 91.4733Z" fill="white"/>
<path fill-rule="evenodd" clip-rule="evenodd" d="M80.552 76.8483C80.0905 77.1162 79.8017 77.6118 79.8017 78.1479C79.8017 78.684 80.0905 79.1795 80.552 79.4474C84.3297 81.6267 91.9341 86.0186 96.1621 88.4578C98.0191 89.53 100.304 89.53 102.165 88.4578C106.389 86.0178 114.001 81.6237 117.775 79.4436C118.24 79.1758 118.525 78.6802 118.525 78.1441C118.525 77.608 118.24 77.1128 117.775 76.8446C114.001 74.6653 106.392 70.2738 102.168 67.8342C100.311 66.762 98.0228 66.762 96.1658 67.8342C91.9416 70.2745 84.3297 74.6683 80.552 76.8483Z" fill="white"/>
<path fill-rule="evenodd" clip-rule="evenodd" d="M29.8521 76.8487C29.3881 77.1165 29.1018 77.6121 29.1018 78.1482C29.1018 78.6843 29.388 79.1799 29.8521 79.4477C33.6243 81.6255 41.2222 86.0121 45.4442 88.4495C47.3012 89.5221 49.5892 89.5221 51.4466 88.4495C55.6686 86.0121 63.2665 81.6255 67.0368 79.4477C67.502 79.1799 67.7871 78.6843 67.7871 78.1482C67.7871 77.6121 67.502 77.1165 67.0368 76.8487C63.2665 74.6709 55.6686 70.2843 51.4466 67.8465C49.5892 66.7743 47.3012 66.7743 45.4442 67.8465C41.2222 70.2843 33.6243 74.6709 29.8521 76.8487Z" fill="white"/>
<path fill-rule="evenodd" clip-rule="evenodd" d="M55.202 62.211C54.7376 62.4793 54.4517 62.9745 54.4517 63.5109C54.4517 64.047 54.7376 64.5422 55.202 64.8104C58.9738 66.9878 66.5718 71.3745 70.7922 73.8122C72.6492 74.8844 74.9376 74.8844 76.7946 73.8122C81.0226 71.3719 88.6345 66.9781 92.4085 64.7981C92.8737 64.5302 93.1588 64.0347 93.1588 63.4986C93.1588 62.9625 92.8737 62.4669 92.4085 62.199C88.6382 60.0213 81.0376 55.6346 76.8172 53.1972C74.9602 52.1247 72.6717 52.1247 70.8147 53.1972C66.5868 55.6372 58.9776 60.031 55.202 62.211Z" fill="white"/>
<path fill-rule="evenodd" clip-rule="evenodd" d="M172.919 79.1864C170.836 80.3893 169.552 82.6122 169.552 85.0187C169.552 90.5319 169.552 100.506 169.552 105.435C169.552 106.036 169.872 106.592 170.394 106.891C170.916 107.194 171.556 107.194 172.077 106.891C176.311 104.446 184.842 99.5215 189.577 96.7859C191.66 95.5823 192.944 93.3601 192.944 90.957C192.944 85.4396 192.944 75.4669 192.944 70.5403C192.944 69.9385 192.624 69.383 192.102 69.0821C191.584 68.7816 190.94 68.7816 190.418 69.0821C186.189 71.5264 177.658 76.4509 172.919 79.1864Z" fill="#30B01E"/>
<path fill-rule="evenodd" clip-rule="evenodd" d="M141.092 90.9432C141.092 93.3505 142.376 95.5727 144.46 96.7763C149.201 99.5119 157.74 104.44 161.974 106.885C162.496 107.188 163.136 107.188 163.657 106.885C164.179 106.587 164.499 106.031 164.499 105.429C164.499 100.505 164.499 90.5392 164.499 85.026C164.499 82.6195 163.216 80.3966 161.132 79.1937C156.391 76.456 147.853 71.5269 143.617 69.0813C143.096 68.7808 142.455 68.7808 141.934 69.0813C141.413 69.3822 141.092 69.9378 141.092 70.5392C141.092 75.4641 141.092 85.43 141.092 90.9432Z" fill="#47CF34"/>
<path fill-rule="evenodd" clip-rule="evenodd" d="M146.154 61.7944C145.633 62.0953 145.312 62.6509 145.312 63.2523C145.312 63.8537 145.633 64.4096 146.154 64.7101C150.389 67.1553 158.923 72.0819 163.662 74.8187C165.745 76.0215 168.313 76.0215 170.396 74.8187C175.135 72.0827 183.665 67.1583 187.895 64.7144C188.417 64.4139 188.737 63.8579 188.737 63.2565C188.737 62.6551 188.417 62.0991 187.895 61.7986C183.661 59.3539 175.13 54.4269 170.387 51.6904C168.304 50.4876 165.737 50.4876 163.654 51.6904C158.915 54.426 150.387 59.3505 146.154 61.7944Z" fill="#77F565"/>
<path fill-rule="evenodd" clip-rule="evenodd" d="M222.297 120.077C221.057 120.793 220.292 122.117 220.292 123.55C220.292 126.834 220.292 132.775 220.292 135.71C220.292 136.069 220.483 136.4 220.793 136.578C221.104 136.758 221.485 136.758 221.796 136.578C224.318 135.121 229.399 132.189 232.219 130.559C233.46 129.842 234.224 128.519 234.224 127.087C234.224 123.801 234.224 117.861 234.224 114.927C234.224 114.568 234.034 114.238 233.723 114.058C233.415 113.879 233.031 113.879 232.72 114.058C230.201 115.514 225.12 118.447 222.297 120.077Z" fill="#287EE7"/>
<path fill-rule="evenodd" clip-rule="evenodd" d="M203.341 127.079C203.341 128.513 204.105 129.837 205.346 130.553C208.17 132.183 213.256 135.118 215.778 136.575C216.089 136.755 216.47 136.755 216.781 136.575C217.092 136.397 217.282 136.066 217.282 135.707C217.282 132.774 217.282 126.839 217.282 123.555C217.282 122.121 216.518 120.797 215.277 120.081C212.453 118.45 207.367 115.514 204.845 114.058C204.534 113.879 204.152 113.879 203.842 114.058C203.532 114.237 203.341 114.568 203.341 114.926C203.341 117.859 203.341 123.795 203.341 127.079Z" fill="#57A3FF"/>
<path fill-rule="evenodd" clip-rule="evenodd" d="M206.355 109.718C206.045 109.897 205.854 110.228 205.854 110.586C205.854 110.944 206.045 111.275 206.355 111.454C208.878 112.911 213.961 115.845 216.783 117.475C218.024 118.191 219.553 118.191 220.794 117.475C223.617 115.845 228.698 112.912 231.217 111.457C231.528 111.278 231.718 110.947 231.718 110.588C231.718 110.23 231.528 109.899 231.217 109.72C228.695 108.264 223.614 105.329 220.789 103.699C219.548 102.983 218.019 102.983 216.778 103.699C213.956 105.329 208.877 108.262 206.355 109.718Z" fill="#9FCDFF"/>
<path d="M119.963 556.963C119.097 556.965 118.257 556.663 117.59 556.11L95.3396 537.568C94.5823 536.939 94.1061 536.034 94.0157 535.054C93.9253 534.073 94.2281 533.097 94.8576 532.34C95.487 531.582 96.3915 531.106 97.3721 531.016C98.3527 530.925 99.329 531.228 100.086 531.858L119.963 548.471L139.84 532.451C140.219 532.143 140.655 531.913 141.124 531.774C141.592 531.635 142.084 531.59 142.57 531.642C143.056 531.694 143.526 531.841 143.955 532.075C144.384 532.309 144.762 532.626 145.068 533.007C145.408 533.388 145.665 533.836 145.824 534.321C145.983 534.806 146.039 535.319 145.991 535.828C145.942 536.336 145.789 536.829 145.541 537.275C145.293 537.721 144.955 538.111 144.549 538.421L122.299 556.333C121.613 556.798 120.79 557.02 119.963 556.963Z" fill="#EBF2FC"/>
<path d="M119.963 530.963C119.097 530.965 118.257 530.663 117.59 530.11L95.3396 511.568C94.5823 510.939 94.1061 510.034 94.0157 509.054C93.9253 508.073 94.2281 507.097 94.8576 506.34C95.487 505.582 96.3915 505.106 97.3721 505.016C98.3527 504.925 99.329 505.228 100.086 505.858L119.963 522.471L139.84 506.451C140.219 506.143 140.655 505.913 141.124 505.774C141.592 505.635 142.084 505.59 142.57 505.642C143.056 505.694 143.526 505.841 143.955 506.075C144.384 506.309 144.762 506.626 145.068 507.007C145.408 507.388 145.665 507.836 145.824 508.321C145.983 508.806 146.039 509.319 145.991 509.828C145.942 510.336 145.789 510.829 145.541 511.275C145.293 511.721 144.955 512.111 144.549 512.421L122.299 530.333C121.613 530.798 120.79 531.02 119.963 530.963Z" fill="#EBF2FC"/>
</svg>
