<svg width="1077" height="459" viewBox="0 0 1077 459" fill="none" xmlns="http://www.w3.org/2000/svg">
<path d="M200.5 2.3094C202.975 0.88034 206.025 0.880339 208.5 2.3094L288.402 48.4406C290.877 49.8697 292.402 52.5107 292.402 55.3688V147.631C292.402 150.489 290.877 153.13 288.402 154.559L208.5 200.691C206.025 202.12 202.975 202.12 200.5 200.691L120.598 154.559C118.123 153.13 116.598 150.489 116.598 147.631V55.3688C116.598 52.5107 118.123 49.8697 120.598 48.4406L200.5 2.3094Z" fill="#EBF2FC"/>
<path d="M944.5 204.309C946.975 202.88 950.025 202.88 952.5 204.309L1055.78 263.941C1058.26 265.37 1059.78 268.011 1059.78 270.869V390.131C1059.78 392.989 1058.26 395.63 1055.78 397.059L952.5 456.691C950.025 458.12 946.975 458.12 944.5 456.691L841.216 397.059C838.741 395.63 837.216 392.989 837.216 390.131V270.869C837.216 268.011 838.741 265.37 841.216 263.941L944.5 204.309Z" fill="#EBF2FC"/>
<path d="M65.5 214.309C67.9752 212.88 71.0248 212.88 73.5 214.309L125.689 244.441C128.164 245.87 129.689 248.511 129.689 251.369V311.631C129.689 314.489 128.164 317.13 125.689 318.559L73.5 348.691C71.0248 350.12 67.9752 350.12 65.5 348.691L13.3112 318.559C10.836 317.13 9.31123 314.489 9.31123 311.631V251.369C9.31123 248.511 10.836 245.87 13.3112 244.441L65.5 214.309Z" fill="#EBF2FC"/>
</svg>
