<svg width="1173" height="1035" viewBox="0 0 1173 1035" fill="none" xmlns="http://www.w3.org/2000/svg">
<path d="M51.5 926.309C53.9752 924.88 57.0248 924.88 59.5 926.309L99.5644 949.441C102.04 950.87 103.564 953.511 103.564 956.369V1002.63C103.564 1005.49 102.04 1008.13 99.5644 1009.56L59.5 1032.69C57.0248 1034.12 53.9752 1034.12 51.5 1032.69L11.4356 1009.56C8.96038 1008.13 7.43559 1005.49 7.43559 1002.63V956.369C7.43559 953.511 8.96038 950.87 11.4356 949.441L51.5 926.309Z" fill="#EBF2FC"/>
<path d="M227.5 398V410.5C227.5 427.069 240.931 440.5 257.5 440.5H545C561.569 440.5 575 453.931 575 470.5V522C575 538.569 588.431 552 605 552H803.5C820.069 552 833.5 565.431 833.5 582V600" stroke="#EBF2FC" stroke-width="4"/>
<path d="M833.5 834.5V861.5C833.5 878.069 820.069 891.5 803.5 891.5H386C369.431 891.5 356 904.931 356 921.5V972C356 988.569 342.569 1002 326 1002H101" stroke="#EBF2FC" stroke-width="4"/>
<path d="M222 100V79.7608C222 63.1922 235.431 49.7608 252 49.7608H508.244C521.294 49.7608 531.874 39.1811 531.874 26.1304V26.1304C531.874 13.0797 542.454 2.5 555.504 2.5H846C862.569 2.5 876 15.9315 876 32.5V100" stroke="#EBF2FC" stroke-width="4"/>
<path d="M931.303 22.1603C940.585 16.8013 952.021 16.8013 961.303 22.1603L1127.45 118.087C1136.74 123.446 1142.45 133.35 1142.45 144.068V335.922C1142.45 346.64 1136.74 356.544 1127.45 361.903L961.303 457.83C952.021 463.189 940.585 463.189 931.303 457.83L765.153 361.903C755.871 356.544 750.153 346.64 750.153 335.923V144.068C750.153 133.35 755.871 123.446 765.153 118.087L931.303 22.1603Z" fill="#EBF2FC"/>
<path fill-rule="evenodd" clip-rule="evenodd" d="M804.236 414.981C804.236 419.174 806.475 423.051 810.11 425.151C818.382 429.931 833.282 438.53 840.669 442.796C841.579 443.317 842.696 443.317 843.606 442.796C844.517 442.275 845.075 441.298 845.075 440.256C845.075 431.789 845.075 414.798 845.075 405.325C845.075 401.125 842.835 397.248 839.2 395.148C830.928 390.375 816.031 381.769 808.641 377.503C807.732 376.982 806.613 376.982 805.704 377.503C804.795 378.032 804.236 379.001 804.236 380.051L804.236 414.981Z" fill="#C8D8EC"/>
<path fill-rule="evenodd" clip-rule="evenodd" d="M754.618 386.347C754.618 390.547 756.857 394.424 760.492 396.524C768.757 401.29 783.627 409.881 791.011 414.14C791.919 414.669 793.039 414.669 793.948 414.14C794.856 413.619 795.417 412.649 795.417 411.599C795.417 403.133 795.417 386.141 795.417 376.669C795.417 372.469 793.177 368.592 789.541 366.492C781.278 361.726 766.407 353.135 759.024 348.876C758.115 348.355 756.995 348.355 756.086 348.876C755.178 349.397 754.618 350.367 754.618 351.417C754.618 359.883 754.618 376.867 754.618 386.347Z" fill="#C8D8EC"/>
<path fill-rule="evenodd" clip-rule="evenodd" d="M804.236 358.027C804.236 362.22 806.475 366.097 810.11 368.197C818.382 372.978 833.282 381.576 840.669 385.842C841.579 386.364 842.696 386.364 843.606 385.842C844.517 385.314 845.075 384.344 845.075 383.294C845.075 374.769 845.075 357.587 845.075 348.041C845.075 343.841 842.835 339.964 839.2 337.864C830.926 333.091 816.031 324.492 808.641 320.226C807.732 319.705 806.613 319.705 805.704 320.226C804.795 320.755 804.236 321.724 804.236 322.774C804.236 331.299 804.236 348.482 804.236 358.027Z" fill="#C8D8EC"/>
<path fill-rule="evenodd" clip-rule="evenodd" d="M705 357.697C705 361.897 707.24 365.774 710.874 367.874C719.142 372.647 734.024 381.238 741.409 385.497C742.318 386.026 743.438 386.026 744.346 385.497C745.255 384.976 745.815 384.007 745.815 382.957C745.815 374.49 745.815 357.506 745.815 348.027C745.815 343.834 743.576 339.957 739.941 337.856C731.673 333.084 716.792 324.492 709.406 320.226C708.497 319.705 707.378 319.705 706.469 320.226C705.56 320.755 705 321.724 705 322.774C705 331.241 705 348.225 705 357.697Z" fill="#C8D8EC"/>
<path fill-rule="evenodd" clip-rule="evenodd" d="M754.618 329.369C754.618 333.569 756.857 337.446 760.493 339.546C768.757 344.319 783.627 352.903 791.011 357.161C791.919 357.69 793.039 357.69 793.948 357.161C794.856 356.64 795.417 355.671 795.417 354.621C795.417 346.096 795.417 328.913 795.417 319.368C795.417 315.167 793.176 311.29 789.541 309.19C781.276 304.425 766.406 295.841 759.024 291.582C758.115 291.053 756.995 291.053 756.086 291.582C755.178 292.103 754.618 293.073 754.618 294.123C754.618 302.648 754.618 319.823 754.618 329.369Z" fill="#C8D8EC"/>
<path fill-rule="evenodd" clip-rule="evenodd" d="M894.726 258.881C894.726 254.681 892.487 250.804 888.851 248.704C880.578 243.931 865.68 235.332 858.293 231.066C857.383 230.537 856.267 230.537 855.356 231.066C854.446 231.587 853.887 232.557 853.887 233.607C853.887 242.198 853.887 259.586 853.887 269.205C853.887 273.404 856.127 277.282 859.762 279.381C868.034 284.158 882.931 292.758 890.321 297.025C891.23 297.549 892.35 297.549 893.258 297.025C894.167 296.5 894.726 295.53 894.726 294.481C894.726 285.888 894.726 268.5 894.726 258.881Z" fill="#C8D8EC"/>
<path fill-rule="evenodd" clip-rule="evenodd" d="M705 300.711C705 304.911 707.24 308.788 710.875 310.888C719.142 315.661 734.024 324.252 741.409 328.519C742.318 329.04 743.438 329.04 744.346 328.519C745.255 327.99 745.815 327.021 745.815 325.971C745.815 317.446 745.815 300.27 745.815 290.725C745.815 286.532 743.575 282.651 739.94 280.552C731.672 275.78 716.791 267.191 709.406 262.929C708.497 262.404 707.378 262.404 706.469 262.929C705.56 263.454 705 264.423 705 265.472C705 273.997 705 291.173 705 300.711Z" fill="#C8D8EC"/>
<path fill-rule="evenodd" clip-rule="evenodd" d="M754.618 272.072C754.618 276.27 756.858 280.149 760.494 282.247C768.758 287.016 783.628 295.6 791.011 299.859C791.92 300.388 793.039 300.388 793.948 299.859C794.856 299.338 795.417 298.369 795.417 297.319C795.417 288.727 795.417 271.333 795.417 261.712C795.417 257.515 793.177 253.636 789.542 251.538C781.279 246.766 766.407 238.181 759.024 233.918C758.115 233.393 756.995 233.393 756.086 233.918C755.178 234.443 754.618 235.413 754.618 236.462C754.618 245.056 754.618 262.45 754.618 272.072Z" fill="#C8D8EC"/>
<path fill-rule="evenodd" clip-rule="evenodd" d="M859.776 395.162C856.141 397.254 853.902 401.139 853.902 405.332C853.902 414.811 853.902 431.796 853.902 440.262C853.902 441.305 854.46 442.281 855.37 442.803C856.281 443.324 857.397 443.324 858.307 442.803C865.694 438.536 880.578 429.945 888.839 425.172C892.474 423.072 894.714 419.195 894.714 414.995C894.714 405.523 894.714 388.538 894.714 380.072C894.714 379.022 894.155 378.053 893.245 377.531C892.342 377.003 891.218 377.003 890.308 377.531C882.928 381.79 868.044 390.389 859.776 395.162Z" fill="#A6B7CA"/>
<path fill-rule="evenodd" clip-rule="evenodd" d="M909.394 366.523C905.759 368.616 903.52 372.5 903.52 376.693C903.52 386.173 903.52 403.157 903.52 411.623C903.52 412.673 904.085 413.643 904.988 414.164C905.899 414.685 907.022 414.685 907.925 414.164C915.312 409.905 930.182 401.314 938.443 396.548C942.085 394.448 944.317 390.571 944.317 386.371C944.317 376.899 944.317 359.907 944.317 351.448C944.317 350.391 943.759 349.429 942.848 348.9C941.945 348.379 940.822 348.379 939.911 348.9C932.532 353.159 917.662 361.75 909.394 366.523Z" fill="#A6B7CA"/>
<path fill-rule="evenodd" clip-rule="evenodd" d="M859.776 337.881C856.141 339.981 853.902 343.858 853.902 348.058C853.902 357.596 853.902 374.771 853.902 383.297C853.902 384.347 854.46 385.316 855.37 385.837C856.281 386.366 857.397 386.366 858.308 385.837C865.695 381.578 880.579 372.987 888.839 368.207C892.474 366.114 894.714 362.237 894.714 358.037C894.714 348.491 894.714 331.324 894.714 322.798C894.714 321.748 894.156 320.779 893.245 320.25C892.342 319.729 891.218 319.729 890.308 320.25C882.928 324.517 868.044 333.108 859.776 337.881Z" fill="#A6B7CA"/>
<path fill-rule="evenodd" clip-rule="evenodd" d="M993.979 322.774C993.979 321.724 993.421 320.755 992.51 320.226C991.607 319.705 990.483 319.705 989.573 320.226C982.186 324.492 967.287 333.098 959.012 337.871C955.377 339.971 953.137 343.848 953.137 348.048C953.137 357.521 953.137 374.505 953.137 382.971C953.137 384.021 953.703 384.991 954.606 385.512C955.516 386.041 956.64 386.041 957.543 385.512C964.937 381.246 979.836 372.647 988.104 367.874C991.739 365.774 993.979 361.897 993.979 357.697C993.979 348.225 993.979 331.241 993.979 322.774Z" fill="#A6B7CA"/>
<path fill-rule="evenodd" clip-rule="evenodd" d="M909.394 309.222C905.759 311.322 903.52 315.199 903.52 319.399L903.52 354.638C903.52 355.688 904.085 356.657 904.988 357.178C905.899 357.707 907.022 357.707 907.925 357.178C915.312 352.919 930.182 344.336 938.443 339.563C942.085 337.463 944.317 333.586 944.317 329.385L944.317 294.147C944.317 293.097 943.759 292.127 942.848 291.606C941.945 291.077 940.822 291.077 939.911 291.606C932.532 295.865 917.662 304.456 909.394 309.222Z" fill="#A6B7CA"/>
<path fill-rule="evenodd" clip-rule="evenodd" d="M839.186 279.395C842.821 277.296 845.061 273.418 845.061 269.219C845.061 259.6 845.061 242.197 845.061 233.599C845.061 232.549 844.502 231.579 843.592 231.058C842.681 230.529 841.565 230.529 840.655 231.058C833.268 235.324 818.384 243.915 810.123 248.688C806.488 250.788 804.249 254.665 804.249 258.858C804.249 268.485 804.249 285.885 804.249 294.48C804.249 295.53 804.807 296.5 805.717 297.025C806.62 297.549 807.744 297.549 808.654 297.025C816.034 292.76 830.918 284.168 839.186 279.395Z" fill="#A6B7CA"/>
<path fill-rule="evenodd" clip-rule="evenodd" d="M959.012 280.573C955.377 282.672 953.137 286.553 953.137 290.746C953.137 300.292 953.137 317.46 953.137 325.985C953.137 327.035 953.703 328.004 954.606 328.533C955.517 329.054 956.64 329.054 957.543 328.533C964.938 324.267 979.836 315.661 988.104 310.888C991.739 308.788 993.979 304.911 993.979 300.711C993.979 291.172 993.979 273.998 993.979 265.474C993.979 264.425 993.421 263.455 992.51 262.931C991.607 262.405 990.484 262.405 989.573 262.931C982.186 267.197 967.287 275.797 959.012 280.573Z" fill="#A6B7CA"/>
<path fill-rule="evenodd" clip-rule="evenodd" d="M909.394 251.561C905.759 253.659 903.52 257.538 903.52 261.736C903.52 271.359 903.52 288.758 903.52 297.357C903.52 298.407 904.085 299.376 904.988 299.898C905.899 300.426 907.022 300.426 907.925 299.898C915.312 295.639 930.182 287.047 938.443 282.279C942.085 280.18 944.317 276.302 944.317 272.104C944.317 262.481 944.317 245.08 944.317 236.485C944.317 235.436 943.759 234.466 942.848 233.941C941.945 233.416 940.822 233.416 939.911 233.941C932.532 238.204 917.662 246.79 909.394 251.561Z" fill="#A6B7CA"/>
<path fill-rule="evenodd" clip-rule="evenodd" d="M912.284 192.563C911.373 193.088 910.815 194.057 910.815 195.106C910.815 196.156 911.373 197.126 912.284 197.65C919.671 201.915 942.823 215.287 942.823 215.287L942.837 174.919C942.837 174.919 919.671 188.296 912.284 192.563Z" fill="#A6B7CA"/>
<path fill-rule="evenodd" clip-rule="evenodd" d="M705 243.429C705 247.627 707.24 251.506 710.876 253.604C719.144 258.376 734.024 266.965 741.41 271.228C742.318 271.753 743.438 271.753 744.347 271.228C745.255 270.704 745.815 269.734 745.815 268.684C745.815 260.09 745.815 242.693 745.815 233.071C745.815 228.874 743.576 224.996 739.94 222.897C731.673 218.123 716.792 209.531 709.406 205.267C708.497 204.742 707.378 204.742 706.469 205.267C705.56 205.792 705 206.762 705 207.811C705 216.406 705 233.806 705 243.429Z" fill="#57A3FF"/>
<path fill-rule="evenodd" clip-rule="evenodd" d="M713.812 192.553C712.904 193.077 712.344 194.047 712.344 195.096C712.344 196.145 712.904 197.115 713.812 197.64C721.196 201.902 736.067 210.488 744.331 215.259C747.966 217.358 752.444 217.358 756.079 215.259C764.347 210.486 779.228 201.894 786.614 197.63C787.523 197.105 788.083 196.136 788.083 195.086C788.083 194.037 787.523 193.067 786.614 192.542C779.231 188.281 764.36 179.694 756.096 174.923C752.461 172.824 747.982 172.824 744.347 174.923C736.08 179.696 721.198 188.288 713.812 192.553Z" fill="#9FCDFF"/>
<path fill-rule="evenodd" clip-rule="evenodd" d="M885.866 309.739C886.774 309.214 887.335 308.245 887.335 307.196C887.335 306.147 886.774 305.177 885.866 304.652C878.478 300.386 863.587 291.79 855.319 287.015C851.684 284.917 847.205 284.917 843.57 287.015C835.302 291.789 820.418 300.381 813.038 304.645C812.128 305.169 811.57 306.139 811.57 307.189C811.57 308.238 812.128 309.208 813.038 309.732C820.425 313.998 835.309 322.594 843.585 327.368C847.22 329.467 851.699 329.467 855.333 327.368C863.602 322.595 878.48 314.004 885.866 309.739Z" fill="white"/>
<path fill-rule="evenodd" clip-rule="evenodd" d="M988.104 253.608L953.137 233.089C953.137 233.089 953.137 260.112 953.137 268.708C953.137 269.758 953.703 270.727 954.606 271.252C955.516 271.776 956.64 271.776 957.543 271.252C964.937 266.985 988.104 253.608 988.104 253.608Z" fill="white"/>
<path fill-rule="evenodd" clip-rule="evenodd" d="M862.666 221.217C861.762 221.741 861.197 222.711 861.197 223.76C861.197 224.81 861.762 225.779 862.666 226.304C870.06 230.57 884.944 239.166 893.212 243.94C896.847 246.039 901.326 246.039 904.961 243.94C913.229 239.169 928.098 230.583 935.478 226.321C936.389 225.796 936.947 224.827 936.947 223.777C936.947 222.727 936.389 221.758 935.478 221.233C928.091 216.968 913.207 208.372 904.939 203.597C901.297 201.498 896.825 201.498 893.19 203.597C884.922 208.368 870.053 216.954 862.666 221.217Z" fill="white"/>
<path fill-rule="evenodd" clip-rule="evenodd" d="M763.43 221.202C762.521 221.728 761.961 222.697 761.961 223.746C761.961 224.795 762.521 225.765 763.43 226.29C770.818 230.555 785.707 239.152 793.976 243.926C797.612 246.025 802.09 246.025 805.725 243.926C813.993 239.153 828.874 230.561 836.258 226.297C837.168 225.772 837.726 224.803 837.726 223.753C837.726 222.704 837.168 221.734 836.258 221.21C828.872 216.944 813.983 208.348 805.713 203.573C802.078 201.474 797.6 201.474 793.965 203.573C785.697 208.347 770.816 216.938 763.43 221.202Z" fill="white"/>
<path fill-rule="evenodd" clip-rule="evenodd" d="M813.048 192.542C812.139 193.067 811.579 194.037 811.579 195.086C811.579 196.136 812.139 197.105 813.048 197.63C820.436 201.896 835.324 210.491 843.592 215.267C847.227 217.365 851.706 217.365 855.341 215.267C863.609 210.495 878.478 201.909 885.865 197.646C886.769 197.122 887.334 196.152 887.334 195.103C887.334 194.054 886.769 193.084 885.865 192.559C878.471 188.294 863.587 179.697 855.311 174.923C851.677 172.824 847.198 172.824 843.563 174.923C835.302 179.695 820.43 188.281 813.048 192.542Z" fill="white"/>
<path fill-rule="evenodd" clip-rule="evenodd" d="M862.666 163.917C861.762 164.441 861.197 165.411 861.197 166.46C861.197 167.51 861.762 168.48 862.666 169.004C870.06 173.269 884.944 181.866 893.22 186.64C896.854 188.739 901.326 188.739 904.968 186.64C913.236 181.864 928.135 173.263 935.522 168.996C936.433 168.472 936.991 167.502 936.991 166.453C936.991 165.404 936.433 164.434 935.522 163.909C928.135 159.644 913.244 151.048 904.976 146.273C901.341 144.174 896.862 144.174 893.227 146.273C884.959 151.05 870.06 159.65 862.666 163.917Z" fill="white"/>
<path fill-rule="evenodd" clip-rule="evenodd" d="M763.43 163.917C762.522 164.442 761.961 165.412 761.961 166.461C761.961 167.51 762.522 168.48 763.43 169.004C770.813 173.267 785.685 181.853 793.949 186.624C797.583 188.723 802.062 188.723 805.697 186.624C813.961 181.853 828.833 173.267 836.212 169.004C837.123 168.48 837.681 167.51 837.681 166.461C837.681 165.412 837.123 164.442 836.212 163.917C828.833 159.655 813.961 151.069 805.697 146.297C802.062 144.199 797.583 144.199 793.949 146.297C785.685 151.069 770.813 159.655 763.43 163.917Z" fill="white"/>
<path fill-rule="evenodd" clip-rule="evenodd" d="M813.048 135.267C812.139 135.792 811.579 136.761 811.579 137.811C811.579 138.86 812.139 139.83 813.048 140.355C820.43 144.617 835.302 153.203 843.563 157.974C847.198 160.073 851.677 160.073 855.311 157.974C863.587 153.197 878.486 144.597 885.873 140.33C886.783 139.806 887.341 138.836 887.341 137.787C887.341 136.738 886.783 135.768 885.873 135.243C878.493 130.981 863.616 122.395 855.356 117.624C851.721 115.525 847.242 115.525 843.607 117.624C835.331 122.4 820.438 131 813.048 135.267Z" fill="white"/>
<path fill-rule="evenodd" clip-rule="evenodd" d="M1043.46 168.493C1039.38 170.847 1036.87 175.198 1036.87 179.909C1036.87 190.7 1036.87 210.223 1036.87 219.869C1036.87 221.047 1037.49 222.134 1038.52 222.719C1039.54 223.312 1040.79 223.312 1041.81 222.719C1050.1 217.933 1066.79 208.295 1076.06 202.941C1080.14 200.585 1082.65 196.235 1082.65 191.532C1082.65 180.732 1082.65 161.213 1082.65 151.57C1082.65 150.392 1082.03 149.305 1081 148.716C1079.99 148.127 1078.73 148.127 1077.71 148.716C1069.43 153.5 1052.73 163.139 1043.46 168.493Z" fill="#30B01E"/>
<path fill-rule="evenodd" clip-rule="evenodd" d="M981.162 191.505C981.162 196.217 983.675 200.566 987.753 202.922C997.034 208.277 1013.75 217.923 1022.03 222.709C1023.06 223.302 1024.31 223.302 1025.33 222.709C1026.35 222.124 1026.98 221.037 1026.98 219.859C1026.98 210.221 1026.98 190.714 1026.98 179.923C1026.98 175.213 1024.46 170.862 1020.39 168.507C1011.11 163.149 994.395 153.501 986.105 148.714C985.085 148.126 983.829 148.126 982.81 148.714C981.79 149.303 981.162 150.391 981.162 151.568C981.162 161.207 981.162 180.714 981.162 191.505Z" fill="#47CF34"/>
<path fill-rule="evenodd" clip-rule="evenodd" d="M991.07 134.451C990.051 135.04 989.422 136.128 989.422 137.305C989.422 138.482 990.051 139.57 991.069 140.158C999.358 144.944 1016.06 154.587 1025.34 159.944C1029.42 162.298 1034.44 162.298 1038.52 159.944C1047.79 154.589 1064.49 144.95 1072.77 140.167C1073.79 139.578 1074.42 138.49 1074.42 137.313C1074.42 136.136 1073.79 135.048 1072.77 134.46C1064.48 129.674 1047.79 120.031 1038.5 114.675C1034.42 112.32 1029.4 112.32 1025.32 114.675C1016.05 120.029 999.356 129.668 991.07 134.451Z" fill="#77F565"/>
<path fill-rule="evenodd" clip-rule="evenodd" d="M1140.11 248.528C1137.68 249.93 1136.18 252.522 1136.18 255.327C1136.18 261.755 1136.18 273.383 1136.18 279.128C1136.18 279.83 1136.55 280.478 1137.16 280.826C1137.77 281.179 1138.52 281.179 1139.12 280.826C1144.06 277.975 1154.01 272.235 1159.53 269.046C1161.95 267.642 1163.45 265.052 1163.45 262.25C1163.45 255.818 1163.45 244.192 1163.45 238.448C1163.45 237.747 1163.08 237.099 1162.47 236.748C1161.87 236.398 1161.12 236.398 1160.51 236.748C1155.58 239.598 1145.63 245.339 1140.11 248.528Z" fill="#287EE7"/>
<path fill-rule="evenodd" clip-rule="evenodd" d="M1103 262.234C1103 265.041 1104.5 267.631 1106.93 269.035C1112.46 272.224 1122.41 277.969 1127.35 280.82C1127.95 281.173 1128.7 281.173 1129.31 280.82C1129.92 280.471 1130.29 279.824 1130.29 279.122C1130.29 273.382 1130.29 261.763 1130.29 255.336C1130.29 252.53 1128.79 249.939 1126.36 248.537C1120.84 245.345 1110.88 239.599 1105.95 236.747C1105.34 236.397 1104.59 236.397 1103.98 236.747C1103.38 237.098 1103 237.746 1103 238.447C1103 244.189 1103 255.807 1103 262.234Z" fill="#57A3FF"/>
<path fill-rule="evenodd" clip-rule="evenodd" d="M1108.9 228.252C1108.3 228.603 1107.92 229.251 1107.92 229.952C1107.92 230.653 1108.3 231.301 1108.9 231.651C1113.84 234.502 1123.79 240.245 1129.31 243.436C1131.74 244.838 1134.74 244.838 1137.16 243.436C1142.69 240.246 1152.63 234.505 1157.57 231.656C1158.17 231.306 1158.55 230.658 1158.55 229.957C1158.55 229.256 1158.17 228.607 1157.57 228.257C1152.63 225.407 1142.68 219.663 1137.15 216.473C1134.73 215.071 1131.73 215.071 1129.3 216.473C1123.78 219.662 1113.84 225.403 1108.9 228.252Z" fill="#9FCDFF"/>
<path d="M51.5 84.3094C53.9752 82.8803 57.0248 82.8803 59.5 84.3094L99.5644 107.441C102.04 108.87 103.564 111.511 103.564 114.369V160.631C103.564 163.489 102.04 166.13 99.5644 167.559L59.5 190.691C57.0248 192.12 53.9752 192.12 51.5 190.691L11.4356 167.559C8.96038 166.13 7.43559 163.489 7.43559 160.631V114.369C7.43559 111.511 8.96038 108.87 11.4356 107.441L51.5 84.3094Z" fill="#EBF2FC"/>
<path d="M109 42.1547C110.238 41.4402 111.762 41.4402 113 42.1547L133.249 53.8453C134.486 54.5598 135.249 55.8803 135.249 57.3094V80.6906C135.249 82.1197 134.486 83.4402 133.249 84.1547L113 95.8453C111.762 96.5598 110.238 96.5598 109 95.8453L88.7513 84.1547C87.5137 83.4402 86.7513 82.1197 86.7513 80.6906V57.3094C86.7513 55.8803 87.5137 54.5598 88.7513 53.8453L109 42.1547Z" fill="#EBF2FC"/>
</svg>
