<svg width="80" height="77" fill="none" xmlns="http://www.w3.org/2000/svg"><path d="M0 46.1c0 1.399 1.194 2.533 2.667 2.533H32c.736 0 1.333-.567 1.333-1.266 0-.7-.597-1.267-1.333-1.267H2.667V16.967c0-.7-.597-1.267-1.334-1.267C.597 15.7 0 16.267 0 16.967V46.1Zm0-35.467c0 .7.597 1.267 1.333 1.267.737 0 1.334-.567 1.334-1.267v-7.6h66.666V19.5c0 .7.597 1.267 1.334 1.267.736 0 1.333-.567 1.333-1.267V3.033C72 1.634 70.806.5 69.333.5H2.667C1.194.5 0 1.634 0 3.033v7.6Z" fill="#fff"/><path d="M8 9.367c.736 0 1.333-.568 1.333-1.267 0-.7-.597-1.267-1.334-1.267-.736 0-1.333.567-1.333 1.267s.597 1.267 1.333 1.267Zm5.333 0c.737 0 1.334-.568 1.334-1.267 0-.7-.597-1.267-1.334-1.267C12.597 6.833 12 7.4 12 8.1s.597 1.267 1.333 1.267Zm5.333 0C19.403 9.367 20 8.799 20 8.1c0-.7-.597-1.267-1.334-1.267-.736 0-1.333.567-1.333 1.267s.597 1.267 1.333 1.267ZM7.057 31.795a1.383 1.383 0 0 0 1.886 0l8.39-7.97 4.391 4.17c.52.495 1.365.495 1.885 0l9.724-9.237 4.391 4.17c.52.495 1.365.495 1.885 0l11.058-10.504 4.39 4.171a1.383 1.383 0 0 0 1.886 0l8-7.6c.346-.318.485-.789.363-1.231a1.302 1.302 0 0 0-.952-.905 1.38 1.38 0 0 0-1.297.345L56 13.91l-4.39-4.171a1.384 1.384 0 0 0-1.886 0L38.667 20.242l-4.391-4.171a1.383 1.383 0 0 0-1.885 0l-9.724 9.238-4.391-4.171a1.383 1.383 0 0 0-1.885 0l-9.334 8.866a1.222 1.222 0 0 0 0 1.791ZM57.334 19.5c-7.95-.007-15.321 3.946-19.422 10.416-4.1 6.47-4.33 14.509-.604 21.18l-4.984 4.736a1.223 1.223 0 0 0-.002 1.793c.52.495 1.366.496 1.887.002l4.534-4.307a22.304 22.304 0 0 0 5.657 5.376l-14.902 14.16c-1.565 1.473-4.087 1.476-5.655.006a3.677 3.677 0 0 1-.008-5.383l5.666-5.37c.507-.497.5-1.287-.013-1.777a1.384 1.384 0 0 0-1.87-.017l-5.674 5.378c-2.596 2.478-2.591 6.484.01 8.958 2.61 2.46 6.82 2.46 9.429 0l15.359-14.594c8.333 4.198 18.532 3.055 25.608-2.871 7.076-5.926 9.549-15.395 6.21-23.776-3.34-8.38-11.794-13.92-21.227-13.91Zm0 40.533c-11.046 0-20-8.506-20-19 0-10.493 8.954-19 20-19 11.045 0 20 8.507 20 19-.013 10.489-8.96 18.989-20 19Z" fill="#fff"/><path d="M52.973 26.412c-6.876 1.865-11.623 7.828-11.639 14.621 0 .7.597 1.267 1.333 1.267.737 0 1.334-.567 1.334-1.267.012-5.66 3.966-10.627 9.694-12.181a1.3 1.3 0 0 0 .932-.907 1.225 1.225 0 0 0-.362-1.22 1.383 1.383 0 0 0-1.292-.313Z" fill="#fff"/></svg>