<svg width="693" height="649" fill="none" xmlns="http://www.w3.org/2000/svg"><path d="M62.5 43.31a8 8 0 0 1 8 0l40.064 23.13a8 8 0 0 1 4 6.929v46.262a7.998 7.998 0 0 1-4 6.928L70.5 149.691a8 8 0 0 1-8 0l-40.064-23.132a8 8 0 0 1-4-6.928V73.369a8 8 0 0 1 4-6.928L62.5 43.309ZM120 1.155a4 4 0 0 1 4 0l20.249 11.69c1.237.715 2 2.035 2 3.464v23.382a4 4 0 0 1-2 3.464L124 54.845a4 4 0 0 1-4 0l-20.249-11.69a4 4 0 0 1-2-3.464V16.309a4 4 0 0 1 2-3.464L120 1.155Z" fill="#EBF2FC"/><path d="M170 82.26c0-15.463 12.536-28 28-28h126.87c13.05 0 23.63-10.579 23.63-23.63C348.5 17.58 359.08 7 372.13 7H515c16.569 0 30 13.431 30 30v45.26" stroke="#EBF2FC" stroke-width="4"/><path d="M552.599 25.66a30 30 0 0 1 30 0l78.6 45.38a30 30 0 0 1 15 25.98v90.761a29.999 29.999 0 0 1-15 25.98l-78.6 45.38a30 30 0 0 1-30 0l-78.6-45.38a29.999 29.999 0 0 1-15-25.98v-90.76a30 30 0 0 1 15-25.98l78.6-45.38Z" fill="#EBF2FC"/><path fill-rule="evenodd" clip-rule="evenodd" d="M488.943 239.283a6.502 6.502 0 0 0 3.252 5.63c4.58 2.647 12.829 7.408 16.919 9.77a1.625 1.625 0 0 0 2.439-1.407v-19.339a6.507 6.507 0 0 0-3.252-5.635c-4.58-2.643-12.828-7.407-16.919-9.769a1.633 1.633 0 0 0-1.626 0 1.629 1.629 0 0 0-.813 1.41v19.34Zm-27.472-15.854a6.506 6.506 0 0 0 3.253 5.635c4.575 2.638 12.809 7.395 16.896 9.753a1.616 1.616 0 0 0 1.627 0c.503-.289.813-.825.813-1.407v-19.339a6.506 6.506 0 0 0-3.253-5.635c-4.575-2.638-12.809-7.395-16.896-9.753a1.635 1.635 0 0 0-1.627 0 1.621 1.621 0 0 0-.813 1.407v19.339Zm27.472-15.679a6.502 6.502 0 0 0 3.252 5.63c4.58 2.647 12.829 7.408 16.919 9.77a1.638 1.638 0 0 0 1.626 0c.504-.293.813-.83.813-1.411v-19.518a6.507 6.507 0 0 0-3.252-5.635l-16.92-9.765a1.633 1.633 0 0 0-1.626 0 1.632 1.632 0 0 0-.812 1.411v19.518ZM434 207.567a6.508 6.508 0 0 0 3.252 5.635c4.578 2.642 12.817 7.399 16.906 9.757a1.619 1.619 0 0 0 1.626 0 1.62 1.62 0 0 0 .813-1.407v-19.339a6.503 6.503 0 0 0-3.252-5.631l-16.906-9.761a1.633 1.633 0 0 0-1.626 0 1.633 1.633 0 0 0-.813 1.411v19.335Zm27.471-15.684a6.504 6.504 0 0 0 3.253 5.634c4.575 2.643 12.809 7.395 16.896 9.753a1.616 1.616 0 0 0 1.627 0 1.62 1.62 0 0 0 .813-1.406v-19.518a6.508 6.508 0 0 0-3.253-5.635c-4.576-2.639-12.809-7.391-16.896-9.749a1.616 1.616 0 0 0-1.627 0 1.62 1.62 0 0 0-.813 1.406v19.515Zm77.572-39.026a6.507 6.507 0 0 0-3.252-5.635c-4.581-2.642-12.829-7.403-16.919-9.765a1.614 1.614 0 0 0-1.626 0 1.618 1.618 0 0 0-.813 1.406v19.71a6.507 6.507 0 0 0 3.252 5.634l16.919 9.768a1.628 1.628 0 0 0 2.439-1.408v-19.71ZM434 176.016a6.506 6.506 0 0 0 3.253 5.635 82699.23 82699.23 0 0 1 16.905 9.761 1.633 1.633 0 0 0 1.626 0 1.63 1.63 0 0 0 .813-1.411v-19.514c0-2.321-1.24-4.47-3.252-5.632l-16.906-9.757a1.628 1.628 0 0 0-2.439 1.408v19.51Zm27.471-15.856a6.508 6.508 0 0 0 3.253 5.634l16.896 9.751a1.62 1.62 0 0 0 1.627 0c.503-.289.813-.826.813-1.407v-19.714a6.504 6.504 0 0 0-3.253-5.633l-16.896-9.755a1.625 1.625 0 0 0-2.44 1.408v19.716Z" fill="#C8D8EC"/><path fill-rule="evenodd" clip-rule="evenodd" d="M519.693 228.31a6.498 6.498 0 0 0-3.253 5.63v19.34c0 .577.309 1.118.814 1.406a1.633 1.633 0 0 0 1.626 0c4.09-2.362 12.33-7.118 16.904-9.761a6.507 6.507 0 0 0 3.252-5.635v-19.335a1.62 1.62 0 0 0-.813-1.407 1.619 1.619 0 0 0-1.626 0c-4.086 2.358-12.326 7.119-16.904 9.762Zm27.471-15.856a6.5 6.5 0 0 0-3.252 5.63v19.34a1.626 1.626 0 0 0 2.439 1.406c4.09-2.358 12.322-7.114 16.896-9.753a6.495 6.495 0 0 0 3.252-5.634v-19.336a1.624 1.624 0 0 0-2.439-1.41c-4.086 2.358-12.318 7.114-16.896 9.757Zm-27.471-15.858a6.503 6.503 0 0 0-3.252 5.634v19.51c0 .582.308 1.118.813 1.407a1.614 1.614 0 0 0 1.626 0c4.09-2.358 12.33-7.114 16.904-9.761a6.496 6.496 0 0 0 3.252-5.631v-19.51c0-.581-.309-1.118-.813-1.411a1.638 1.638 0 0 0-1.626 0c-4.086 2.362-12.326 7.119-16.904 9.762Zm74.302-8.364a1.63 1.63 0 0 0-.813-1.411 1.633 1.633 0 0 0-1.626 0c-4.09 2.362-12.339 7.127-16.921 9.769a6.508 6.508 0 0 0-3.252 5.635v19.335a1.628 1.628 0 0 0 2.439 1.407l16.921-9.765a6.508 6.508 0 0 0 3.252-5.635v-19.335Zm-46.831-7.504a6.508 6.508 0 0 0-3.252 5.635v19.51a1.628 1.628 0 0 0 2.439 1.407c4.09-2.358 12.322-7.111 16.896-9.753a6.497 6.497 0 0 0 3.252-5.635v-19.51a1.62 1.62 0 0 0-.813-1.407 1.619 1.619 0 0 0-1.626 0c-4.086 2.358-12.318 7.115-16.896 9.753Zm-38.871-16.513a6.505 6.505 0 0 0 3.252-5.634v-19.722c0-.581-.308-1.118-.813-1.407a1.619 1.619 0 0 0-1.626 0c-4.09 2.362-12.33 7.119-16.904 9.762a6.504 6.504 0 0 0-3.252 5.63v19.723c0 .581.309 1.118.813 1.408.5.291 1.122.291 1.626 0a47745.37 47745.37 0 0 1 16.904-9.76Zm66.342.652a6.507 6.507 0 0 0-3.252 5.632v19.51c0 .582.313 1.118.813 1.411a1.633 1.633 0 0 0 1.626 0c4.094-2.362 12.343-7.127 16.921-9.769a6.508 6.508 0 0 0 3.252-5.635v-19.509c0-.581-.309-1.118-.813-1.408a1.623 1.623 0 0 0-1.626 0l-16.921 9.768Zm-27.471-16.063a6.505 6.505 0 0 0-3.252 5.633v19.722a1.628 1.628 0 0 0 2.439 1.407c4.09-2.358 12.322-7.115 16.896-9.755a6.495 6.495 0 0 0 3.252-5.633v-19.721c0-.581-.309-1.118-.813-1.408a1.623 1.623 0 0 0-1.626 0c-4.086 2.36-12.318 7.114-16.896 9.755Zm1.6-32.665a1.626 1.626 0 0 0 0 2.817l16.908 9.765.008-22.35-16.916 9.768Z" fill="#A6B7CA"/><path fill-rule="evenodd" clip-rule="evenodd" d="M434 144.302a6.503 6.503 0 0 0 3.253 5.633l16.906 9.758a1.623 1.623 0 0 0 2.438-1.408v-19.718a6.503 6.503 0 0 0-3.252-5.633l-16.906-9.761a1.628 1.628 0 0 0-2.439 1.409v19.72Z" fill="#57A3FF"/><path fill-rule="evenodd" clip-rule="evenodd" d="M438.879 116.134a1.625 1.625 0 0 0 0 2.816l16.897 9.755a6.505 6.505 0 0 0 6.505 0l16.905-9.76a1.627 1.627 0 0 0 0-2.817l-16.896-9.755a6.505 6.505 0 0 0-6.505 0c-4.578 2.642-12.817 7.399-16.906 9.761Z" fill="#9FCDFF"/><path fill-rule="evenodd" clip-rule="evenodd" d="M534.138 181.015a1.626 1.626 0 0 0 0-2.817l-16.913-9.764a6.505 6.505 0 0 0-6.505 0c-4.577 2.642-12.818 7.399-16.904 9.76a1.626 1.626 0 0 0 0 2.817c4.09 2.361 12.331 7.121 16.912 9.764a6.505 6.505 0 0 0 6.505 0l16.905-9.76Zm56.605-31.077-19.36-11.361v19.721a1.628 1.628 0 0 0 2.439 1.408c4.094-2.362 16.921-9.768 16.921-9.768Zm-69.45-17.934c-.5.29-.813.827-.813 1.408s.313 1.118.813 1.408c4.094 2.362 12.334 7.121 16.912 9.765a6.505 6.505 0 0 0 6.505 0l16.896-9.755a1.626 1.626 0 0 0 0-2.817l-16.908-9.765a6.505 6.505 0 0 0-6.505 0l-16.9 9.756Zm-54.943-.008a1.625 1.625 0 0 0 0 2.816l16.912 9.765a6.505 6.505 0 0 0 6.505 0l16.905-9.761c.504-.29.813-.827.813-1.408s-.309-1.118-.813-1.408l-16.911-9.765a6.505 6.505 0 0 0-6.505 0l-16.906 9.761Zm27.471-15.868a1.626 1.626 0 0 0 0 2.817l16.912 9.764a6.503 6.503 0 0 0 6.504 0c4.578-2.641 12.811-7.395 16.9-9.755.5-.29.813-.827.813-1.408s-.313-1.118-.813-1.409c-4.094-2.361-12.334-7.121-16.916-9.764a6.505 6.505 0 0 0-6.505 0c-4.573 2.642-12.807 7.395-16.895 9.755Zm27.472-15.849c-.5.29-.813.827-.813 1.408s.313 1.118.813 1.409c4.094 2.361 12.334 7.121 16.916 9.764a6.505 6.505 0 0 0 6.505 0l16.916-9.768a1.626 1.626 0 0 0 0-2.817l-16.912-9.764a6.506 6.506 0 0 0-6.505 0c-4.578 2.644-12.826 7.406-16.92 9.768Zm-54.943 0a1.628 1.628 0 0 0 0 2.817l16.897 9.755a6.505 6.505 0 0 0 6.505 0l16.895-9.755a1.626 1.626 0 0 0 0-2.817l-16.895-9.755a6.506 6.506 0 0 0-6.505 0l-16.897 9.755Zm27.471-15.862a1.627 1.627 0 0 0 0 2.817c4.088 2.36 12.322 7.113 16.895 9.755a6.506 6.506 0 0 0 6.505 0c4.582-2.645 12.831-7.406 16.92-9.769a1.623 1.623 0 0 0 0-2.816c-4.085-2.36-12.322-7.114-16.896-9.755a6.502 6.502 0 0 0-6.504 0c-4.582 2.644-12.828 7.406-16.92 9.768Z" fill="#fff"/><path fill-rule="evenodd" clip-rule="evenodd" d="M621.389 102.813a7.297 7.297 0 0 0-3.648 6.32v22.124c0 .653.346 1.255.912 1.578a1.809 1.809 0 0 0 1.824 0c4.588-2.649 13.833-7.985 18.964-10.95a7.297 7.297 0 0 0 3.648-6.317V93.443a1.825 1.825 0 0 0-2.736-1.58 62899.18 62899.18 0 0 1-18.964 10.95Z" fill="#30B01E"/><path fill-rule="evenodd" clip-rule="evenodd" d="M586.899 115.554a7.3 7.3 0 0 0 3.649 6.321 45846.08 45846.08 0 0 1 18.98 10.955 1.815 1.815 0 0 0 1.825 0c.565-.324.912-.926.912-1.578v-22.111a7.296 7.296 0 0 0-3.649-6.32l-18.98-10.959a1.827 1.827 0 0 0-2.737 1.58v22.112Z" fill="#47CF34"/><path fill-rule="evenodd" clip-rule="evenodd" d="M592.384 83.965a1.825 1.825 0 0 0 0 3.16l18.974 10.955a7.297 7.297 0 0 0 7.297 0c5.135-2.965 14.38-8.302 18.963-10.95a1.821 1.821 0 0 0 0-3.16c-4.588-2.65-13.832-7.989-18.972-10.954a7.3 7.3 0 0 0-7.298 0l-18.964 10.95Z" fill="#77F565"/><path fill-rule="evenodd" clip-rule="evenodd" d="M674.9 147.125a4.346 4.346 0 0 0-2.174 3.764v13.178c0 .388.207.747.544.94.336.195.749.195 1.086 0l11.295-6.523a4.344 4.344 0 0 0 2.173-3.762v-13.178a1.085 1.085 0 0 0-1.629-.941l-11.295 6.522Z" fill="#287EE7"/><path fill-rule="evenodd" clip-rule="evenodd" d="M654.356 154.713c0 1.554.829 2.989 2.174 3.765l11.305 6.525c.337.196.749.196 1.086 0a1.08 1.08 0 0 0 .544-.939v-13.17a4.346 4.346 0 0 0-2.174-3.764l-11.305-6.528a1.087 1.087 0 0 0-1.63.941v13.17Z" fill="#57A3FF"/><path fill-rule="evenodd" clip-rule="evenodd" d="M657.624 135.899a1.088 1.088 0 0 0 0 1.882c2.733 1.578 8.242 4.758 11.3 6.525a4.35 4.35 0 0 0 4.347 0l11.295-6.522a1.085 1.085 0 0 0 0-1.882c-2.733-1.578-8.239-4.759-11.301-6.525a4.348 4.348 0 0 0-4.346 0l-11.295 6.522Z" fill="#9FCDFF"/><path d="M51.5 540.309a8 8 0 0 1 8 0l40.064 23.132a7.999 7.999 0 0 1 4 6.928v46.262a7.999 7.999 0 0 1-4 6.928L59.5 646.691a8 8 0 0 1-8 0l-40.064-23.132a8 8 0 0 1-4-6.928v-46.262a8 8 0 0 1 4-6.928L51.5 540.309Z" fill="#EBF2FC"/><path d="M163 268c0 16.016 12.984 29 29 29h288.5c16.569 0 30 13.431 30 30v4m29 177v24.5c0 16.569-13.431 30-30 30H288c-16.569 0-30 13.431-30 30 0 16.569-13.431 30-30 30H63.5" stroke="#EBF2FC" stroke-width="4"/></svg>