<svg width="239" height="557" fill="none" xmlns="http://www.w3.org/2000/svg"><path d="M108.283 8.66a30 30 0 0 1 30 0l70.214 40.538a30 30 0 0 1 15 25.981v81.076a30 30 0 0 1-15 25.981l-70.214 40.538a30 30 0 0 1-30 0l-70.214-40.538a30 30 0 0 1-15-25.981V75.179a30 30 0 0 1 15-25.98L108.283 8.66Z" fill="#EBF2FC"/><path fill-rule="evenodd" clip-rule="evenodd" d="M50.7 205.118a6.002 6.002 0 0 0 3.001 5.196c4.227 2.442 11.839 6.835 15.613 9.015a1.499 1.499 0 0 0 2.25-1.298v-17.846a6.005 6.005 0 0 0-3-5.2c-4.227-2.438-11.838-6.835-15.613-9.015a1.51 1.51 0 0 0-1.5 0c-.465.27-.751.766-.751 1.302v17.846Zm-25.35-14.629a6.003 6.003 0 0 0 3.001 5.199c4.223 2.435 11.82 6.824 15.592 9a1.49 1.49 0 0 0 1.5 0c.465-.266.751-.761.751-1.298v-17.846a6.003 6.003 0 0 0-3.002-5.199c-4.221-2.435-11.819-6.824-15.591-9a1.506 1.506 0 0 0-1.5 0 1.494 1.494 0 0 0-.751 1.298v17.846ZM50.7 176.02a6.002 6.002 0 0 0 3.001 5.196c4.227 2.442 11.839 6.835 15.613 9.015a1.51 1.51 0 0 0 1.5 0c.466-.27.75-.765.75-1.302v-18.011a6.005 6.005 0 0 0-3-5.2c-4.228-2.438-11.838-6.831-15.614-9.011a1.51 1.51 0 0 0-1.5 0c-.464.27-.75.766-.75 1.302v18.011ZM0 175.851a6.005 6.005 0 0 0 3.001 5.2c4.224 2.439 11.827 6.828 15.6 9.004.465.27 1.037.27 1.501 0 .465-.267.75-.762.75-1.298v-17.846a6.002 6.002 0 0 0-3-5.196L2.25 156.707a1.51 1.51 0 0 0-1.5 0 1.507 1.507 0 0 0-.751 1.302v17.842Zm25.35-14.473a6.004 6.004 0 0 0 3.002 5.2c4.222 2.438 11.819 6.824 15.591 9a1.49 1.49 0 0 0 1.5 0c.465-.267.751-.762.751-1.298v-18.011a6.005 6.005 0 0 0-3.002-5.2l-15.591-8.996a1.491 1.491 0 0 0-1.5 0 1.495 1.495 0 0 0-.751 1.298v18.007Zm71.582-36.012a6.004 6.004 0 0 0-3.002-5.2c-4.227-2.438-11.838-6.831-15.612-9.011a1.491 1.491 0 0 0-1.5 0c-.466.267-.75.762-.75 1.298v18.188a6.001 6.001 0 0 0 3 5.198l15.613 9.015a1.502 1.502 0 0 0 2.25-1.3v-18.188ZM0 146.737a6.004 6.004 0 0 0 3.002 5.2l15.6 9.007a1.51 1.51 0 0 0 1.5 0c.465-.27.75-.765.75-1.302v-18.007a6.003 6.003 0 0 0-3.001-5.197l-15.6-9.004A1.5 1.5 0 0 0 0 128.733v18.004Zm25.35-14.632a6.003 6.003 0 0 0 3.002 5.199l15.591 8.998a1.49 1.49 0 0 0 1.5 0c.465-.267.751-.762.751-1.298v-18.192a6.003 6.003 0 0 0-3.001-5.198L27.6 112.612a1.5 1.5 0 0 0-2.251 1.3v18.193Z" fill="#C8D8EC"/><path fill-rule="evenodd" clip-rule="evenodd" d="M79.076 194.992a6 6 0 0 0-3.002 5.196v17.846a1.5 1.5 0 0 0 .75 1.298 1.506 1.506 0 0 0 1.501 0l15.6-9.007a6.005 6.005 0 0 0 3-5.2v-17.842c0-.536-.285-1.032-.75-1.298a1.491 1.491 0 0 0-1.5 0c-3.77 2.176-11.375 6.569-15.6 9.007Zm25.35-14.631a5.999 5.999 0 0 0-3.002 5.196v17.846a1.502 1.502 0 0 0 2.251 1.298c3.774-2.176 11.371-6.565 15.592-9a5.998 5.998 0 0 0 3.001-5.2v-17.842a1.5 1.5 0 0 0-2.251-1.302c-3.77 2.176-11.367 6.565-15.591 9.004Zm-25.35-14.634a6.005 6.005 0 0 0-3.001 5.2v18.003c0 .537.285 1.032.75 1.299a1.49 1.49 0 0 0 1.5 0c3.774-2.176 11.379-6.566 15.6-9.008a5.993 5.993 0 0 0 3-5.196v-18.003c0-.537-.285-1.032-.75-1.302a1.51 1.51 0 0 0-1.5 0c-3.77 2.18-11.375 6.569-15.6 9.007Zm68.564-7.718c0-.536-.285-1.031-.75-1.301a1.506 1.506 0 0 0-1.501 0c-3.774 2.179-11.386 6.576-15.614 9.014a6.004 6.004 0 0 0-3.001 5.2v17.842a1.5 1.5 0 0 0 2.251 1.298c3.778-2.179 11.39-6.572 15.614-9.011a6.004 6.004 0 0 0 3.001-5.199v-17.843Zm-43.214-6.924a6.005 6.005 0 0 0-3.002 5.2v18.003a1.5 1.5 0 0 0 .751 1.298 1.485 1.485 0 0 0 1.5 0c3.774-2.175 11.371-6.561 15.592-8.999a5.998 5.998 0 0 0 3.001-5.2v-18.004c0-.536-.285-1.031-.75-1.298a1.492 1.492 0 0 0-1.501 0c-3.77 2.176-11.367 6.566-15.591 9Zm-35.87-15.238a6.003 6.003 0 0 0 3.002-5.199v-18.199c0-.536-.286-1.031-.75-1.298a1.491 1.491 0 0 0-1.501 0c-3.775 2.18-11.379 6.569-15.6 9.008a6.001 6.001 0 0 0-3 5.195v18.2a1.5 1.5 0 0 0 2.25 1.3c3.77-2.179 11.375-6.569 15.6-9.007Zm61.22.602a6.004 6.004 0 0 0-3.002 5.197v18.004c0 .536.289 1.031.751 1.301a1.505 1.505 0 0 0 1.5 0c3.778-2.179 11.39-6.576 15.614-9.014a6.004 6.004 0 0 0 3.001-5.2v-18.002a1.498 1.498 0 0 0-2.251-1.3l-15.613 9.014Zm-25.35-14.823a6.004 6.004 0 0 0-3.002 5.199v18.199a1.502 1.502 0 0 0 2.251 1.298c3.774-2.176 11.371-6.566 15.592-9.002a5.996 5.996 0 0 0 3.001-5.198v-18.198a1.5 1.5 0 0 0-2.251-1.3 39806.62 39806.62 0 0 1-15.591 9.002Zm1.476-30.142a1.499 1.499 0 0 0 0 2.599l15.602 9.011.008-20.624-15.61 9.014Z" fill="#A6B7CA"/><path fill-rule="evenodd" clip-rule="evenodd" d="M0 117.472a6.003 6.003 0 0 0 3.002 5.198l15.6 9.004a1.5 1.5 0 0 0 2.25-1.299V112.18a6 6 0 0 0-3-5.198L2.25 97.975a1.5 1.5 0 0 0-2.25 1.3v18.197Z" fill="#57A3FF"/><path fill-rule="evenodd" clip-rule="evenodd" d="M4.502 91.479a1.501 1.501 0 0 0 0 2.599l15.592 9.001a5.999 5.999 0 0 0 6.003 0l15.6-9.006a1.501 1.501 0 0 0 0-2.6l-15.592-9.001a6.003 6.003 0 0 0-6.002 0l-15.6 9.007Z" fill="#9FCDFF"/><path fill-rule="evenodd" clip-rule="evenodd" d="M92.405 151.35a1.503 1.503 0 0 0 0-2.599l-15.607-9.011a6.003 6.003 0 0 0-6.002 0c-4.224 2.439-11.829 6.828-15.599 9.007a1.498 1.498 0 0 0 0 2.599c3.774 2.179 11.379 6.571 15.606 9.01a5.999 5.999 0 0 0 6.003 0l15.6-9.006Zm52.234-28.678-17.865-10.483v18.198a1.5 1.5 0 0 0 2.251 1.299l15.614-9.014Zm-64.087-16.549c-.462.268-.75.764-.75 1.3s.288 1.031.75 1.299c3.778 2.18 11.382 6.571 15.606 9.011a6.004 6.004 0 0 0 6.003 0l15.591-9.002a1.498 1.498 0 0 0 0-2.599l-15.602-9.01a6.003 6.003 0 0 0-6.003 0l-15.595 9.001Zm-50.7-.007a1.5 1.5 0 0 0 0 2.599l15.606 9.01a5.999 5.999 0 0 0 6.003 0l15.599-9.006a1.5 1.5 0 0 0 0-2.599c-3.773-2.18-11.38-6.572-15.605-9.011a6.003 6.003 0 0 0-6.003 0l-15.6 9.007Zm25.35-14.643a1.5 1.5 0 0 0 0 2.6l15.605 9.01a6.004 6.004 0 0 0 6.003 0l15.595-9.002c.461-.268.75-.763.75-1.3 0-.536-.289-1.03-.75-1.299-3.778-2.18-11.382-6.571-15.61-9.01a6.003 6.003 0 0 0-6.003 0l-15.59 9.001Zm25.35-14.625c-.462.268-.75.764-.75 1.3s.288 1.032.75 1.3c3.778 2.179 11.382 6.57 15.61 9.01a6.003 6.003 0 0 0 6.003 0l15.61-9.014a1.498 1.498 0 0 0 0-2.6c-3.774-2.179-11.383-6.57-15.607-9.01a6.002 6.002 0 0 0-6.002 0c-4.224 2.44-11.836 6.834-15.614 9.014Zm-50.7.001a1.5 1.5 0 0 0 0 2.599l15.592 9.002a6 6 0 0 0 6.003 0l15.59-9.002a1.498 1.498 0 0 0 0-2.6l-15.59-9.001a6.003 6.003 0 0 0-6.003 0l-15.592 9.002Zm25.35-14.638a1.5 1.5 0 0 0 0 2.6c3.772 2.177 11.37 6.563 15.59 9.001a6.003 6.003 0 0 0 6.003 0c4.228-2.44 11.84-6.834 15.614-9.014a1.498 1.498 0 0 0 0-2.599c-3.77-2.178-11.371-6.564-15.592-9.002a6.001 6.001 0 0 0-6.002 0l-15.613 9.014Z" fill="#fff"/><path fill-rule="evenodd" clip-rule="evenodd" d="M172.919 79.186a6.735 6.735 0 0 0-3.367 5.833v20.416c0 .601.32 1.157.842 1.456a1.672 1.672 0 0 0 1.683 0l17.5-10.105a6.734 6.734 0 0 0 3.367-5.829V70.54a1.682 1.682 0 0 0-2.526-1.458 45188.28 45188.28 0 0 1-17.499 10.104Z" fill="#30B01E"/><path fill-rule="evenodd" clip-rule="evenodd" d="M141.092 90.943a6.735 6.735 0 0 0 3.368 5.833c4.741 2.736 13.28 7.664 17.514 10.109a1.672 1.672 0 0 0 1.683 0c.522-.298.842-.854.842-1.456V85.026a6.733 6.733 0 0 0-3.367-5.832L143.617 69.08a1.684 1.684 0 0 0-2.525 1.458v20.404Z" fill="#47CF34"/><path fill-rule="evenodd" clip-rule="evenodd" d="M146.154 61.794a1.684 1.684 0 0 0 0 2.916l17.508 10.109a6.735 6.735 0 0 0 6.734 0c4.739-2.736 13.269-7.66 17.499-10.105a1.681 1.681 0 0 0 0-2.915c-4.234-2.445-12.765-7.372-17.508-10.109a6.733 6.733 0 0 0-6.733 0l-17.5 10.104Z" fill="#77F565"/><path fill-rule="evenodd" clip-rule="evenodd" d="M222.297 120.077a4.011 4.011 0 0 0-2.005 3.473v12.16a1 1 0 0 0 .501.868c.311.18.692.18 1.003 0 2.522-1.457 7.603-4.389 10.423-6.019a4.01 4.01 0 0 0 2.005-3.472v-12.16a1.002 1.002 0 0 0-1.504-.869c-2.519 1.456-7.6 4.389-10.423 6.019Z" fill="#287EE7"/><path fill-rule="evenodd" clip-rule="evenodd" d="M203.341 127.079a4.01 4.01 0 0 0 2.005 3.474l10.432 6.022c.311.18.692.18 1.003 0a.998.998 0 0 0 .501-.868v-12.152a4.01 4.01 0 0 0-2.005-3.474l-10.432-6.023a1.004 1.004 0 0 0-1.504.868v12.153Z" fill="#57A3FF"/><path fill-rule="evenodd" clip-rule="evenodd" d="M206.355 109.718a1.002 1.002 0 0 0 0 1.736l10.428 6.021a4.013 4.013 0 0 0 4.011 0l10.423-6.018a1 1 0 0 0 .501-.869 1 1 0 0 0-.501-.868l-10.428-6.021a4.013 4.013 0 0 0-4.011 0l-10.423 6.019Z" fill="#9FCDFF"/><path d="M119.963 556.963a3.706 3.706 0 0 1-2.373-.853l-22.25-18.542a3.712 3.712 0 1 1 4.746-5.71l19.877 16.613 19.877-16.02a3.704 3.704 0 0 1 4.115-.376 3.7 3.7 0 0 1 1.113.932 3.709 3.709 0 0 1-.519 5.414l-22.25 17.912a3.71 3.71 0 0 1-2.336.63Zm0-26a3.706 3.706 0 0 1-2.373-.853l-22.25-18.542a3.712 3.712 0 1 1 4.746-5.71l19.877 16.613 19.877-16.02a3.704 3.704 0 0 1 4.115-.376 3.7 3.7 0 0 1 1.113.932 3.709 3.709 0 0 1-.519 5.414l-22.25 17.912a3.71 3.71 0 0 1-2.336.63Z" fill="#EBF2FC"/></svg>