<svg width="1077" height="459" fill="none" xmlns="http://www.w3.org/2000/svg"><path d="M200.5 2.31a8 8 0 0 1 8 0l79.902 46.13a8 8 0 0 1 4 6.929v92.262a8 8 0 0 1-4 6.928L208.5 200.691a8 8 0 0 1-8 0l-79.902-46.132a8 8 0 0 1-4-6.928V55.369a8 8 0 0 1 4-6.928L200.5 2.309Zm744 201.999a8 8 0 0 1 8 0l103.28 59.632a7.99 7.99 0 0 1 4 6.928v119.262a7.99 7.99 0 0 1-4 6.928L952.5 456.691a8 8 0 0 1-8 0l-103.284-59.632a8 8 0 0 1-4-6.928V270.869a8 8 0 0 1 4-6.928L944.5 204.309Zm-879 10a8 8 0 0 1 8 0l52.189 30.132a8 8 0 0 1 4 6.928v60.262a8 8 0 0 1-4 6.928L73.5 348.691a8 8 0 0 1-8 0l-52.189-30.132a8 8 0 0 1-4-6.928v-60.262a8 8 0 0 1 4-6.928L65.5 214.309Z" fill="#EBF2FC"/></svg>