<svg width="1173" height="1035" fill="none" xmlns="http://www.w3.org/2000/svg"><path d="M51.5 926.309a8 8 0 0 1 8 0l40.064 23.132a7.999 7.999 0 0 1 4 6.928v46.261a8 8 0 0 1-4 6.93L59.5 1032.69a7.995 7.995 0 0 1-8 0l-40.064-23.13a8.002 8.002 0 0 1-4-6.93v-46.261a8 8 0 0 1 4-6.928L51.5 926.309Z" fill="#EBF2FC"/><path d="M227.5 398v12.5c0 16.569 13.431 30 30 30H545c16.569 0 30 13.431 30 30V522c0 16.569 13.431 30 30 30h198.5c16.569 0 30 13.431 30 30v18m0 234.5v27c0 16.569-13.431 30-30 30H386c-16.569 0-30 13.431-30 30V972c0 16.569-13.431 30-30 30H101m121-902V79.76c0-16.568 13.431-30 30-30h256.244c13.05 0 23.63-10.579 23.63-23.63 0-13.05 10.58-23.63 23.63-23.63H846c16.569 0 30 13.431 30 30V100" stroke="#EBF2FC" stroke-width="4"/><path d="M931.303 22.16a30 30 0 0 1 30 0l166.147 95.927a29.984 29.984 0 0 1 15 25.981v191.854a29.984 29.984 0 0 1-15 25.981L961.303 457.83a30 30 0 0 1-30 0l-166.15-95.927a30 30 0 0 1-15-25.98V144.068a30 30 0 0 1 15-25.981l166.15-95.927Z" fill="#EBF2FC"/><path fill-rule="evenodd" clip-rule="evenodd" d="M804.236 414.981c0 4.193 2.239 8.07 5.874 10.17 8.272 4.78 23.172 13.379 30.559 17.645.91.521 2.027.521 2.937 0a2.931 2.931 0 0 0 1.469-2.54v-34.931c0-4.2-2.24-8.077-5.875-10.177-8.272-4.773-23.169-13.379-30.559-17.645a2.955 2.955 0 0 0-2.937 0 2.948 2.948 0 0 0-1.468 2.548v34.93Zm-49.618-28.634c0 4.2 2.239 8.077 5.874 10.177 8.265 4.766 23.135 13.357 30.519 17.616a2.916 2.916 0 0 0 2.937 0 2.93 2.93 0 0 0 1.469-2.541v-34.93c0-4.2-2.24-8.077-5.876-10.177-8.263-4.766-23.134-13.357-30.517-17.616a2.957 2.957 0 0 0-2.938 0 2.929 2.929 0 0 0-1.468 2.541v34.93Zm49.618-28.32c0 4.193 2.239 8.07 5.874 10.17 8.272 4.781 23.172 13.379 30.559 17.645a2.95 2.95 0 0 0 2.937 0 2.943 2.943 0 0 0 1.469-2.548v-35.253c0-4.2-2.24-8.077-5.875-10.177-8.274-4.773-23.169-13.372-30.559-17.638a2.955 2.955 0 0 0-2.937 0 2.948 2.948 0 0 0-1.468 2.548v35.253Zm-99.236-.33c0 4.2 2.24 8.077 5.874 10.177 8.268 4.773 23.15 13.364 30.535 17.623a2.916 2.916 0 0 0 2.937 0 2.926 2.926 0 0 0 1.469-2.54v-34.93a11.75 11.75 0 0 0-5.874-10.171c-8.268-4.772-23.149-13.364-30.535-17.63a2.955 2.955 0 0 0-2.937 0 2.949 2.949 0 0 0-1.469 2.548v34.923Zm49.618-28.328c0 4.2 2.239 8.077 5.875 10.177 8.264 4.773 23.134 13.357 30.518 17.615a2.916 2.916 0 0 0 2.937 0 2.928 2.928 0 0 0 1.469-2.54v-35.253c0-4.201-2.241-8.078-5.876-10.178-8.265-4.765-23.135-13.349-30.517-17.608a2.918 2.918 0 0 0-2.938 0 2.929 2.929 0 0 0-1.468 2.541v35.246Zm140.108-70.488c0-4.2-2.239-8.077-5.875-10.177-8.273-4.773-23.171-13.372-30.558-17.638a2.916 2.916 0 0 0-2.937 0 2.925 2.925 0 0 0-1.469 2.541v35.598a11.75 11.75 0 0 0 5.875 10.176l30.559 17.644a2.937 2.937 0 0 0 4.405-2.544v-35.6ZM705 300.711c0 4.2 2.24 8.077 5.875 10.177 8.267 4.773 23.149 13.364 30.534 17.631a2.955 2.955 0 0 0 2.937 0 2.949 2.949 0 0 0 1.469-2.548v-35.246c0-4.193-2.24-8.074-5.875-10.173l-30.534-17.623a2.935 2.935 0 0 0-4.406 2.543v35.239Zm49.618-28.639c0 4.198 2.24 8.077 5.876 10.175 8.264 4.769 23.134 13.353 30.517 17.612a2.916 2.916 0 0 0 2.937 0 2.928 2.928 0 0 0 1.469-2.54v-35.607c0-4.197-2.24-8.076-5.875-10.174-8.263-4.772-23.135-13.357-30.518-17.62a2.937 2.937 0 0 0-4.406 2.544v35.61Z" fill="#C8D8EC"/><path fill-rule="evenodd" clip-rule="evenodd" d="M859.776 395.162a11.738 11.738 0 0 0-5.874 10.17v34.93a2.934 2.934 0 0 0 4.405 2.541c7.387-4.267 22.271-12.858 30.532-17.631a11.752 11.752 0 0 0 5.875-10.177v-34.923c0-1.05-.559-2.019-1.469-2.541a2.92 2.92 0 0 0-2.937 0c-7.38 4.259-22.264 12.858-30.532 17.631Zm49.618-28.639a11.74 11.74 0 0 0-5.874 10.17v34.93c0 1.05.565 2.02 1.468 2.541a2.955 2.955 0 0 0 2.937 0c7.387-4.259 22.257-12.85 30.518-17.616a11.736 11.736 0 0 0 5.874-10.177v-34.923a2.936 2.936 0 0 0-4.406-2.548c-7.379 4.259-22.249 12.85-30.517 17.623Zm-49.618-28.642a11.75 11.75 0 0 0-5.874 10.177v35.239c0 1.05.558 2.019 1.468 2.54a2.918 2.918 0 0 0 2.938 0c7.387-4.259 22.271-12.85 30.531-17.63a11.732 11.732 0 0 0 5.875-10.17v-35.239c0-1.05-.558-2.019-1.469-2.548a2.955 2.955 0 0 0-2.937 0c-7.38 4.267-22.264 12.858-30.532 17.631Zm134.203-15.107c0-1.05-.558-2.019-1.469-2.548a2.955 2.955 0 0 0-2.937 0c-7.387 4.266-22.286 12.872-30.561 17.645a11.752 11.752 0 0 0-5.875 10.177v34.923c0 1.05.566 2.02 1.469 2.541.91.529 2.034.529 2.937 0 7.394-4.266 22.293-12.865 30.561-17.638a11.752 11.752 0 0 0 5.875-10.177v-34.923Zm-84.585-13.552a11.75 11.75 0 0 0-5.874 10.177v35.239c0 1.05.565 2.019 1.468 2.54a2.916 2.916 0 0 0 2.937 0c7.387-4.259 22.257-12.842 30.518-17.615a11.736 11.736 0 0 0 5.874-10.178v-35.238c0-1.05-.558-2.02-1.469-2.541a2.916 2.916 0 0 0-2.937 0c-7.379 4.259-22.249 12.85-30.517 17.616Zm-70.208-29.827a11.75 11.75 0 0 0 5.875-10.176v-35.62c0-1.05-.559-2.02-1.469-2.541a2.916 2.916 0 0 0-2.937 0c-7.387 4.266-22.271 12.857-30.532 17.63a11.748 11.748 0 0 0-5.874 10.17v35.622a2.936 2.936 0 0 0 4.405 2.545c7.38-4.265 22.264-12.857 30.532-17.63Zm119.826 1.178a11.752 11.752 0 0 0-5.875 10.173v35.239c0 1.05.566 2.019 1.469 2.548a2.955 2.955 0 0 0 2.937 0c7.395-4.266 22.293-12.872 30.561-17.645a11.752 11.752 0 0 0 5.875-10.177v-35.237a2.931 2.931 0 0 0-1.469-2.543 2.93 2.93 0 0 0-2.937 0c-7.387 4.266-22.286 12.866-30.561 17.642Zm-49.618-29.012a11.747 11.747 0 0 0-5.874 10.175v35.621a2.94 2.94 0 0 0 1.468 2.541 2.92 2.92 0 0 0 2.937 0c7.387-4.259 22.257-12.851 30.518-17.619a11.734 11.734 0 0 0 5.874-10.175v-35.619a2.935 2.935 0 0 0-4.406-2.544 90247.205 90247.205 0 0 1-30.517 17.62Zm2.89-58.998a2.933 2.933 0 0 0-1.469 2.543c0 1.05.558 2.02 1.469 2.544 7.387 4.265 30.539 17.637 30.539 17.637l.014-40.368-30.553 17.644Z" fill="#A6B7CA"/><path fill-rule="evenodd" clip-rule="evenodd" d="M705 243.429c0 4.198 2.24 8.077 5.876 10.175l30.534 17.624a2.935 2.935 0 0 0 4.405-2.544v-35.613c0-4.197-2.239-8.075-5.875-10.174l-30.534-17.63a2.935 2.935 0 0 0-4.406 2.544v35.618Z" fill="#57A3FF"/><path fill-rule="evenodd" clip-rule="evenodd" d="M713.812 192.553a2.937 2.937 0 0 0 0 5.087l30.519 17.619a11.746 11.746 0 0 0 11.748 0l30.535-17.629a2.937 2.937 0 0 0 0-5.088c-7.383-4.261-22.254-12.848-30.518-17.619a11.748 11.748 0 0 0-11.749 0l-30.535 17.63Z" fill="#9FCDFF"/><path fill-rule="evenodd" clip-rule="evenodd" d="M885.866 309.739a2.939 2.939 0 0 0 0-5.087c-7.388-4.266-22.279-12.862-30.547-17.637a11.753 11.753 0 0 0-11.749 0c-8.268 4.774-23.152 13.366-30.532 17.63a2.933 2.933 0 0 0-1.468 2.544c0 1.049.558 2.019 1.468 2.543 7.387 4.266 22.271 12.862 30.547 17.636a11.746 11.746 0 0 0 11.748 0c8.269-4.773 23.147-13.364 30.533-17.629Zm102.238-56.131-34.967-20.519v35.619a2.95 2.95 0 0 0 1.469 2.544 2.94 2.94 0 0 0 2.937 0c7.394-4.267 30.561-17.644 30.561-17.644Zm-125.438-32.391a2.946 2.946 0 0 0-1.469 2.543c0 1.05.565 2.019 1.469 2.544 7.394 4.266 22.278 12.862 30.546 17.636a11.748 11.748 0 0 0 11.749 0c8.268-4.771 23.137-13.357 30.517-17.619a2.933 2.933 0 0 0 1.469-2.544c0-1.05-.558-2.019-1.469-2.544l-30.539-17.636a11.748 11.748 0 0 0-11.749 0c-8.268 4.771-23.137 13.357-30.524 17.62Zm-99.236-.015a2.94 2.94 0 0 0 0 5.088l30.546 17.636a11.748 11.748 0 0 0 11.749 0l30.533-17.629a2.934 2.934 0 0 0 1.468-2.544 2.933 2.933 0 0 0-1.468-2.543c-7.386-4.266-22.275-12.862-30.545-17.637a11.746 11.746 0 0 0-11.748 0 606676.55 606676.55 0 0 1-30.535 17.629Zm49.618-28.66a2.938 2.938 0 0 0 0 5.088c7.388 4.266 22.276 12.861 30.544 17.637a11.753 11.753 0 0 0 11.749 0c8.268-4.772 23.137-13.358 30.524-17.621a2.946 2.946 0 0 0 1.469-2.543 2.949 2.949 0 0 0-1.469-2.544c-7.394-4.265-22.278-12.862-30.554-17.636a11.746 11.746 0 0 0-11.748 0c-8.261 4.772-23.133 13.358-30.515 17.619Zm49.618-28.625a2.946 2.946 0 0 0-1.469 2.543c0 1.05.565 2.02 1.469 2.544 7.394 4.265 22.278 12.862 30.554 17.636a11.746 11.746 0 0 0 11.748 0c8.268-4.776 23.167-13.377 30.554-17.644a2.934 2.934 0 0 0 0-5.087c-7.387-4.265-22.278-12.861-30.546-17.636a11.748 11.748 0 0 0-11.749 0 88599.083 88599.083 0 0 1-30.561 17.644Zm-99.236 0a2.938 2.938 0 0 0 0 5.087l30.519 17.62a11.746 11.746 0 0 0 11.748 0c8.264-4.771 23.136-13.357 30.515-17.62a2.934 2.934 0 0 0 0-5.087c-7.379-4.262-22.251-12.848-30.515-17.62a11.75 11.75 0 0 0-11.748 0 351606.58 351606.58 0 0 1-30.519 17.62Zm49.618-28.65a2.937 2.937 0 0 0 0 5.088c7.382 4.262 22.254 12.848 30.515 17.619a11.746 11.746 0 0 0 11.748 0c8.276-4.777 23.175-13.377 30.562-17.644a2.935 2.935 0 0 0 0-5.087c-7.38-4.262-22.257-12.848-30.517-17.619a11.748 11.748 0 0 0-11.749 0c-8.276 4.776-23.169 13.376-30.559 17.643Z" fill="#fff"/><path fill-rule="evenodd" clip-rule="evenodd" d="M1043.46 168.493a13.175 13.175 0 0 0-6.59 11.416v39.96c0 1.178.62 2.265 1.65 2.85 1.02.593 2.27.593 3.29 0l34.25-19.778a13.176 13.176 0 0 0 6.59-11.409V151.57c0-1.178-.62-2.265-1.65-2.854a3.284 3.284 0 0 0-3.29 0c-8.28 4.784-24.98 14.423-34.25 19.777Z" fill="#30B01E"/><path fill-rule="evenodd" clip-rule="evenodd" d="M981.162 191.505c0 4.712 2.513 9.061 6.591 11.417a68131.8 68131.8 0 0 1 34.277 19.787c1.03.593 2.28.593 3.3 0a3.285 3.285 0 0 0 1.65-2.85v-39.936c0-4.71-2.52-9.061-6.59-11.416l-34.285-19.793a3.298 3.298 0 0 0-4.943 2.854v39.937Z" fill="#47CF34"/><path fill-rule="evenodd" clip-rule="evenodd" d="M991.07 134.451a3.296 3.296 0 0 0-.001 5.707l34.271 19.786a13.182 13.182 0 0 0 13.18 0c9.27-5.355 25.97-14.994 34.25-19.777a3.295 3.295 0 0 0 0-5.707c-8.29-4.786-24.98-14.429-34.27-19.785a13.177 13.177 0 0 0-13.18 0c-9.27 5.354-25.964 14.993-34.25 19.776Z" fill="#77F565"/><path fill-rule="evenodd" clip-rule="evenodd" d="M1140.11 248.528a7.852 7.852 0 0 0-3.93 6.799v23.801c0 .702.37 1.35.98 1.698.61.353 1.36.353 1.96 0 4.94-2.851 14.89-8.591 20.41-11.78a7.865 7.865 0 0 0 3.92-6.796v-23.802a1.96 1.96 0 0 0-2.94-1.7c-4.93 2.85-14.88 8.591-20.4 11.78Z" fill="#287EE7"/><path fill-rule="evenodd" clip-rule="evenodd" d="M1103 262.234c0 2.807 1.5 5.397 3.93 6.801 5.53 3.189 15.48 8.934 20.42 11.785.6.353 1.35.353 1.96 0 .61-.349.98-.996.98-1.698v-23.786c0-2.806-1.5-5.397-3.93-6.799-5.52-3.192-15.48-8.938-20.41-11.79a1.98 1.98 0 0 0-1.97 0c-.6.351-.98.999-.98 1.7v23.787Z" fill="#57A3FF"/><path fill-rule="evenodd" clip-rule="evenodd" d="M1108.9 228.252c-.6.351-.98.999-.98 1.7s.38 1.349.98 1.699c4.94 2.851 14.89 8.594 20.41 11.785a7.851 7.851 0 0 0 7.85 0c5.53-3.19 15.47-8.931 20.41-11.78.6-.35.98-.998.98-1.699 0-.701-.38-1.35-.98-1.7-4.94-2.85-14.89-8.594-20.42-11.784a7.851 7.851 0 0 0-7.85 0c-5.52 3.189-15.46 8.93-20.4 11.779Z" fill="#9FCDFF"/><path d="M51.5 84.31a8 8 0 0 1 8 0l40.064 23.131a7.999 7.999 0 0 1 4 6.928v46.262a7.999 7.999 0 0 1-4 6.928L59.5 190.691a8 8 0 0 1-8 0l-40.064-23.132a8 8 0 0 1-4-6.928v-46.262a8 8 0 0 1 4-6.928L51.5 84.309ZM109 42.155a4 4 0 0 1 4 0l20.249 11.69c1.237.715 2 2.035 2 3.464v23.382a4 4 0 0 1-2 3.464L113 95.845a4 4 0 0 1-4 0l-20.249-11.69a4 4 0 0 1-2-3.464V57.309a4 4 0 0 1 2-3.464L109 42.155Z" fill="#EBF2FC"/></svg>