<svg width="628" height="475" fill="none" xmlns="http://www.w3.org/2000/svg"><g opacity=".5" fill-rule="evenodd" clip-rule="evenodd"><path d="M658.215 446.072c0 4.193-2.239 8.07-5.874 10.17-8.273 4.78-23.172 13.379-30.559 17.645a2.95 2.95 0 0 1-2.937 0 2.931 2.931 0 0 1-1.469-2.54v-34.931c0-4.2 2.24-8.077 5.874-10.177 8.273-4.773 23.169-13.379 30.559-17.645a2.955 2.955 0 0 1 2.937 0 2.949 2.949 0 0 1 1.469 2.548v34.93Zm49.618-28.634c0 4.2-2.24 8.077-5.874 10.177-8.265 4.766-23.136 13.357-30.519 17.616a2.916 2.916 0 0 1-2.937 0 2.928 2.928 0 0 1-1.469-2.541v-34.93c0-4.2 2.24-8.077 5.875-10.177 8.264-4.766 23.135-13.357 30.518-17.616a2.955 2.955 0 0 1 2.937 0 2.928 2.928 0 0 1 1.469 2.541v34.93Zm-49.618-28.319c0 4.192-2.239 8.069-5.874 10.169-8.273 4.781-23.172 13.379-30.559 17.646a2.955 2.955 0 0 1-2.937 0 2.946 2.946 0 0 1-1.469-2.549v-35.253c0-4.2 2.24-8.077 5.874-10.177 8.274-4.773 23.17-13.372 30.56-17.638a2.955 2.955 0 0 1 2.937 0 2.95 2.95 0 0 1 1.468 2.548v35.254Zm99.236-.331c0 4.2-2.24 8.077-5.875 10.177a97261.358 97261.358 0 0 1-30.534 17.624 2.923 2.923 0 0 1-2.938 0 2.928 2.928 0 0 1-1.468-2.541v-34.93c0-4.193 2.239-8.07 5.874-10.17 8.268-4.773 23.149-13.364 30.535-17.631a2.955 2.955 0 0 1 2.937 0 2.95 2.95 0 0 1 1.469 2.548v34.923Zm-49.618-28.328c0 4.2-2.24 8.077-5.875 10.177a87523.355 87523.355 0 0 1-30.518 17.616 2.92 2.92 0 0 1-2.937 0 2.929 2.929 0 0 1-1.469-2.541v-35.253a11.75 11.75 0 0 1 5.876-10.178c8.264-4.765 23.135-13.349 30.517-17.608a2.916 2.916 0 0 1 2.937 0 2.928 2.928 0 0 1 1.469 2.541v35.246Zm-140.109-70.488c0-4.2 2.24-8.077 5.875-10.177 8.273-4.773 23.172-13.372 30.558-17.638a2.923 2.923 0 0 1 2.938 0 2.926 2.926 0 0 1 1.468 2.541v35.598c0 4.199-2.239 8.078-5.874 10.176l-30.559 17.644a2.938 2.938 0 0 1-4.406-2.544v-35.6Zm189.727 41.83c0 4.2-2.24 8.077-5.875 10.177-8.268 4.773-23.149 13.365-30.534 17.631a2.957 2.957 0 0 1-2.938 0 2.948 2.948 0 0 1-1.468-2.548v-35.246c0-4.193 2.239-8.074 5.875-10.172l30.534-17.624a2.939 2.939 0 0 1 4.406 2.543v35.239Zm-49.618-28.639c0 4.198-2.24 8.077-5.876 10.175-8.264 4.77-23.135 13.353-30.517 17.612a2.916 2.916 0 0 1-2.937 0 2.926 2.926 0 0 1-1.469-2.54v-35.607a11.75 11.75 0 0 1 5.874-10.174l30.519-17.62a2.935 2.935 0 0 1 4.406 2.544v35.61Z" fill="#C8D8EC"/><path d="M602.675 426.253a11.74 11.74 0 0 1 5.874 10.17v34.93a2.934 2.934 0 0 1-1.468 2.541 2.957 2.957 0 0 1-2.938 0c-7.387-4.266-22.271-12.858-30.531-17.631a11.752 11.752 0 0 1-5.875-10.177v-34.923c0-1.05.558-2.019 1.469-2.54a2.916 2.916 0 0 1 2.937 0c7.38 4.258 22.264 12.857 30.532 17.63Zm-49.618-28.639a11.74 11.74 0 0 1 5.874 10.17v34.931c0 1.05-.565 2.019-1.468 2.54a2.952 2.952 0 0 1-2.938 0c-7.387-4.259-22.256-12.85-30.517-17.615a11.739 11.739 0 0 1-5.874-10.178v-34.923c0-1.057.558-2.019 1.468-2.548a2.957 2.957 0 0 1 2.938 0c7.379 4.259 22.249 12.85 30.517 17.623Zm49.618-28.642a11.753 11.753 0 0 1 5.874 10.177v35.239c0 1.05-.558 2.019-1.469 2.54a2.916 2.916 0 0 1-2.937 0c-7.387-4.258-22.271-12.85-30.532-17.63a11.733 11.733 0 0 1-5.874-10.17V353.89c0-1.05.558-2.02 1.469-2.549a2.955 2.955 0 0 1 2.937 0c7.38 4.267 22.264 12.858 30.532 17.631Zm-134.203-15.107c0-1.05.558-2.019 1.469-2.548a2.955 2.955 0 0 1 2.937 0c7.387 4.267 22.286 12.872 30.561 17.645a11.751 11.751 0 0 1 5.874 10.178v34.923c0 1.05-.565 2.019-1.468 2.54a2.916 2.916 0 0 1-2.937 0c-7.395-4.266-22.293-12.865-30.561-17.638a11.752 11.752 0 0 1-5.875-10.177v-34.923Zm84.585-13.552a11.75 11.75 0 0 1 5.874 10.177v35.239c0 1.05-.565 2.019-1.468 2.54a2.918 2.918 0 0 1-2.938 0 45443.949 45443.949 0 0 1-30.517-17.615 11.736 11.736 0 0 1-5.874-10.177v-35.239c0-1.05.558-2.019 1.469-2.541a2.916 2.916 0 0 1 2.937 0c7.379 4.259 22.249 12.85 30.517 17.616Zm70.208-29.827a11.75 11.75 0 0 1-5.875-10.176v-35.62c0-1.05.558-2.02 1.469-2.541a2.916 2.916 0 0 1 2.937 0c7.387 4.266 22.271 12.858 30.532 17.63a11.75 11.75 0 0 1 5.874 10.17v35.622a2.936 2.936 0 0 1-4.406 2.545c-7.379-4.265-22.263-12.857-30.531-17.63Zm-119.826 1.178a11.753 11.753 0 0 1 5.874 10.173v35.239a2.96 2.96 0 0 1-1.468 2.548 2.955 2.955 0 0 1-2.937 0c-7.395-4.266-22.293-12.872-30.562-17.645a11.753 11.753 0 0 1-5.874-10.177v-35.237a2.935 2.935 0 0 1 4.406-2.543c7.387 4.266 22.286 12.867 30.561 17.642Zm49.618-29.012a11.747 11.747 0 0 1 5.874 10.175v35.621a2.94 2.94 0 0 1-1.468 2.541 2.923 2.923 0 0 1-2.938 0c-7.387-4.259-22.256-12.85-30.517-17.619a11.733 11.733 0 0 1-5.874-10.175v-35.619a2.935 2.935 0 0 1 4.406-2.544c7.379 4.263 22.249 12.849 30.517 17.62Zm-2.89-58.998a2.933 2.933 0 0 1 1.469 2.544 2.931 2.931 0 0 1-1.469 2.543l-30.539 17.637-.015-40.368s23.167 13.377 30.554 17.644Z" fill="#A6B7CA"/><path d="M576.585 340.831a2.938 2.938 0 0 1 0-5.088c7.388-4.266 22.279-12.861 30.547-17.637a11.753 11.753 0 0 1 11.749 0c8.268 4.774 23.152 13.366 30.531 17.63a2.932 2.932 0 0 1 1.469 2.544 2.931 2.931 0 0 1-1.469 2.543c-7.387 4.266-22.271 12.862-30.546 17.636a11.748 11.748 0 0 1-11.749 0c-8.268-4.772-23.146-13.364-30.532-17.628ZM474.346 284.7l34.967-20.52v35.619c0 1.05-.565 2.019-1.468 2.544a2.94 2.94 0 0 1-2.937 0c-7.395-4.267-30.562-17.643-30.562-17.643Zm125.439-32.392a2.949 2.949 0 0 1 1.469 2.544 2.95 2.95 0 0 1-1.469 2.543c-7.394 4.266-22.278 12.862-30.546 17.636a11.748 11.748 0 0 1-11.749 0 112021.6 112021.6 0 0 1-30.517-17.619 2.933 2.933 0 0 1-1.469-2.543c0-1.051.558-2.02 1.469-2.545l30.539-17.636a11.746 11.746 0 0 1 11.748 0c8.269 4.771 23.138 13.357 30.525 17.62Zm99.236-.014a2.936 2.936 0 0 1 0 5.087l-30.547 17.636a11.746 11.746 0 0 1-11.748 0c-8.268-4.773-23.15-13.365-30.533-17.629a2.933 2.933 0 0 1-1.469-2.543c0-1.05.558-2.02 1.469-2.544 7.385-4.266 22.275-12.862 30.544-17.637a11.748 11.748 0 0 1 11.749 0 357779.3 357779.3 0 0 0 30.535 17.63Zm-49.618-28.66a2.936 2.936 0 0 1 0 5.087l-30.544 17.637a11.753 11.753 0 0 1-11.749 0c-8.268-4.772-23.138-13.358-30.525-17.62a2.95 2.95 0 0 1-1.468-2.544 2.95 2.95 0 0 1 1.468-2.544c7.395-4.265 22.279-12.861 30.554-17.636a11.753 11.753 0 0 1 11.749 0c8.261 4.772 23.132 13.358 30.515 17.62Zm-49.618-28.626a2.948 2.948 0 0 1 1.469 2.543c0 1.05-.566 2.02-1.469 2.544-7.394 4.265-22.278 12.862-30.554 17.636a11.748 11.748 0 0 1-11.749 0c-8.268-4.776-23.166-13.376-30.553-17.643a2.934 2.934 0 0 1-1.469-2.544c0-1.049.558-2.019 1.469-2.544 7.387-4.265 22.278-12.861 30.546-17.636a11.753 11.753 0 0 1 11.749 0c8.268 4.777 23.167 13.377 30.561 17.644Zm99.236 0a2.94 2.94 0 0 1 0 5.088l-30.519 17.619a11.748 11.748 0 0 1-11.749 0l-30.515-17.619a2.935 2.935 0 0 1-1.468-2.544c0-1.049.558-2.019 1.468-2.544l30.515-17.62a11.753 11.753 0 0 1 11.749 0l30.519 17.62Zm-49.618-28.65a2.936 2.936 0 0 1 0 5.088c-7.383 4.262-22.254 12.848-30.515 17.619a11.748 11.748 0 0 1-11.749 0c-8.275-4.776-23.174-13.376-30.561-17.643a2.934 2.934 0 0 1-1.469-2.544c0-1.049.558-2.019 1.469-2.544 7.38-4.262 22.256-12.848 30.517-17.619a11.748 11.748 0 0 1 11.749 0c8.275 4.776 23.169 13.376 30.559 17.643Z" fill="#DDE9F8"/><path d="M418.993 199.584a13.18 13.18 0 0 1 6.59 11.416v39.96a3.28 3.28 0 0 1-1.647 2.85 3.276 3.276 0 0 1-3.296 0c-8.286-4.786-24.984-14.424-34.251-19.778a13.18 13.18 0 0 1-6.59-11.409v-39.962c0-1.178.626-2.265 1.647-2.854a3.298 3.298 0 0 1 3.295 0c8.279 4.784 24.976 14.423 34.252 19.777Z" fill="#30B01E"/><path d="M481.289 222.596c0 4.712-2.513 9.061-6.591 11.417a127689.26 127689.26 0 0 0-34.282 19.787 3.274 3.274 0 0 1-3.295 0 3.28 3.28 0 0 1-1.647-2.85v-39.936a13.18 13.18 0 0 1 6.59-11.415l34.282-19.794a3.298 3.298 0 0 1 4.943 2.854v39.937Z" fill="#47CF34"/><path d="M471.381 165.542a3.295 3.295 0 0 1 0 5.707c-8.288 4.786-24.993 14.429-34.269 19.786a13.182 13.182 0 0 1-13.18 0c-9.275-5.355-25.973-14.994-34.251-19.777a3.29 3.29 0 0 1-1.648-2.854c0-1.177.626-2.265 1.648-2.853 8.287-4.786 24.984-14.429 34.268-19.785a13.177 13.177 0 0 1 13.18 0l34.252 19.776Z" fill="#77F565"/><path d="M240.682 36.499c2.672 1.572 4.318 4.477 4.318 7.622V70.8c0 .787-.41 1.513-1.08 1.903a2.11 2.11 0 0 1-2.159 0c-5.43-3.195-16.371-9.63-22.443-13.205-2.672-1.573-4.318-4.477-4.318-7.617V25.2c0-.787.41-1.513 1.08-1.907a2.126 2.126 0 0 1 2.159 0c5.424 3.195 16.365 9.63 22.443 13.205Z" fill="#C1CDDA"/><path d="M282 51.867c0 3.147-1.645 6.05-4.316 7.624a85441.325 85441.325 0 0 0-22.448 13.212 2.107 2.107 0 0 1-2.157 0A2.198 2.198 0 0 1 252 70.8V44.134c0-3.146 1.645-6.05 4.315-7.623l22.449-13.216a2.122 2.122 0 0 1 2.157 0A2.208 2.208 0 0 1 282 25.2v26.667Z" fill="#D9E4F2"/><path d="M275.895 14.567a2.234 2.234 0 0 1 1.105 1.93c0 .796-.422 1.532-1.105 1.93l-22.981 13.379a8.776 8.776 0 0 1-8.839 0c-6.221-3.621-17.418-10.14-22.97-13.374a2.229 2.229 0 0 1-1.105-1.93c0-.795.42-1.531 1.105-1.929 5.557-3.236 16.755-9.757 22.981-13.379a8.776 8.776 0 0 1 8.839 0c6.22 3.62 17.413 10.139 22.97 13.373Z" fill="#E7F0FA"/><path d="M33.386 392.739c3.474 1.949 5.614 5.551 5.614 9.45v33.083c0 .975-.533 1.876-1.403 2.36a2.858 2.858 0 0 1-2.807 0c-7.06-3.963-21.282-11.942-29.176-16.374C2.14 419.307 0 415.706 0 411.812v-33.084c0-.975.533-1.875 1.403-2.363a2.879 2.879 0 0 1 2.807 0c7.052 3.961 21.275 11.941 29.176 16.374Z" fill="#30B01E"/><path d="M85 411.795c0 3.902-2.084 7.503-5.467 9.454-7.698 4.433-21.56 12.42-28.434 16.383a2.72 2.72 0 0 1-2.732 0 2.716 2.716 0 0 1-1.367-2.36v-33.066c0-3.9 2.084-7.503 5.466-9.452L80.9 376.365a2.739 2.739 0 0 1 2.733 0A2.728 2.728 0 0 1 85 378.728v33.067Z" fill="#47CF34"/><path d="M76.624 364.099A2.772 2.772 0 0 1 78 366.496c0 .989-.525 1.903-1.376 2.398-6.924 4.021-20.878 12.122-28.626 16.623a10.96 10.96 0 0 1-11.01 0c-7.748-4.5-21.696-12.598-28.612-16.616A2.77 2.77 0 0 1 7 366.503c0-.989.523-1.903 1.376-2.397 6.923-4.02 20.87-12.123 28.626-16.623a10.96 10.96 0 0 1 11.01 0l28.612 16.616Z" fill="#77F565"/><path d="M322.344 279.619a7.853 7.853 0 0 1 3.926 6.799v23.801c0 .702-.373 1.35-.982 1.698a1.95 1.95 0 0 1-1.962 0c-4.936-2.85-14.881-8.591-20.401-11.78a7.85 7.85 0 0 1-3.925-6.796v-23.802a1.962 1.962 0 0 1 2.944-1.7c4.93 2.85 14.876 8.591 20.4 11.78Z" fill="#287EE7"/><path d="M359.449 293.325a7.854 7.854 0 0 1-3.926 6.801c-5.528 3.189-15.483 8.934-20.418 11.785a1.952 1.952 0 0 1-1.963 0 1.954 1.954 0 0 1-.981-1.698v-23.786a7.85 7.85 0 0 1 3.925-6.799l20.419-11.789a1.96 1.96 0 0 1 1.962 0c.608.35.982.998.982 1.699v23.787Z" fill="#57A3FF"/><path d="M353.548 259.343a1.964 1.964 0 0 1 0 3.399l-20.411 11.785a7.851 7.851 0 0 1-7.85 0c-5.525-3.189-15.47-8.93-20.401-11.78a1.96 1.96 0 0 1 0-3.399c4.936-2.85 14.881-8.594 20.41-11.784a7.853 7.853 0 0 1 7.851 0l20.401 11.779Z" fill="#9FCDFF"/></g></svg>