<svg width="52" height="83" fill="none" xmlns="http://www.w3.org/2000/svg"><path d="M46.656 10.495a1.25 1.25 0 0 0-1.725-.228 1.183 1.183 0 0 0-.233 1.684c3.136 4.018 4.793 8.819 4.793 13.884 0 5.327-1.913 10.516-5.387 14.612a65.168 65.168 0 0 0-1.715 2.087l-3.52 4.519a24.014 24.014 0 0 0-4.19 8.245h-2.925v-1.093a3.3 3.3 0 0 0-1.479-2.74.913.913 0 0 1-.41-.759v-2.354h1.664c2.275 0 4.125-1.807 4.125-4.027s-1.85-4.027-4.125-4.027-4.125 1.807-4.125 4.027v1.624h-2.809v-1.624c0-2.22-1.85-4.027-4.125-4.027-2.274 0-4.125 1.807-4.125 4.027s1.85 4.027 4.125 4.027h1.664v2.354a.913.913 0 0 1-.41.759 3.3 3.3 0 0 0-1.48 2.74v1.093H17.32a24.01 24.01 0 0 0-4.189-8.245L9.546 42.45a58.61 58.61 0 0 0-1.62-1.967A22.622 22.622 0 0 1 2.51 25.726c.029-6.132 2.531-11.894 7.046-16.225 4.518-4.333 10.468-6.67 16.756-6.596 5.39.068 10.439 1.87 14.598 5.208.525.422 1.3.348 1.733-.165a1.182 1.182 0 0 0-.17-1.69C37.943 2.62 32.215.575 26.343.501 19.398.41 12.82 3.002 7.83 7.787 2.843 12.57.08 18.937.047 25.715c-.028 5.948 2.098 11.74 5.987 16.306.48.563 1.034 1.22 1.552 1.884l3.584 4.602a21.662 21.662 0 0 1 3.599 6.844c-.944.21-1.651 1.034-1.651 2.017v4.653c0 1.098.88 1.997 1.988 2.064v1.579c0 .663.551 1.201 1.231 1.201s1.23-.537 1.23-1.201v-1.572h16.864v6.896l-2.594 3.277H20.162l-2.598-3.281a1.22 1.22 0 0 0-1.227-1.111c-.68 0-1.23.537-1.23 1.201 0 .473.162.94.459 1.315l2.726 3.444c.342.431.846.716 1.392.804C19.85 79.897 22.62 82.5 26 82.5s6.15-2.603 6.315-5.863a2.227 2.227 0 0 0 1.392-.804l2.727-3.445a2.13 2.13 0 0 0 .459-1.314v-6.989c1.108-.067 1.989-.966 1.989-2.064v-4.653c0-.984-.708-1.808-1.652-2.017a21.673 21.673 0 0 1 3.6-6.844l3.518-4.519a62.823 62.823 0 0 1 1.653-2.009c3.838-4.526 5.952-10.26 5.952-16.145 0-5.595-1.832-10.9-5.297-15.339Zm-16.79 33.83c0-.895.746-1.624 1.663-1.624.918 0 1.664.729 1.664 1.624 0 .896-.746 1.624-1.664 1.624h-1.663v-1.624ZM26 80.097c-2.012 0-3.67-1.51-3.846-3.429h7.692c-.177 1.92-1.835 3.429-3.846 3.429Zm-3.293-25.892c0-.303.153-.586.41-.758a3.3 3.3 0 0 0 1.478-2.74v-2.355h2.809v2.354a3.3 3.3 0 0 0 1.48 2.741.914.914 0 0 1 .409.758v1.093h-6.587v-1.093ZM20.47 45.95c-.918 0-1.664-.728-1.664-1.624 0-.895.746-1.624 1.664-1.624.917 0 1.663.729 1.663 1.624v1.624H20.47Zm15.95 15.74H15.58V57.7h20.84v3.988Z" fill="#fff"/></svg>