<svg width="133" height="29" fill="none" xmlns="http://www.w3.org/2000/svg"><path d="M47.32 11.32c.4 0 .733-.043 1-.128.272-.09.49-.213.656-.368a1.3 1.3 0 0 0 .352-.544c.07-.208.104-.432.104-.672 0-.261-.035-.499-.104-.712a1.18 1.18 0 0 0-.352-.536 1.664 1.664 0 0 0-.648-.344c-.267-.08-.6-.12-1-.12H45.44v3.424h1.88Zm.008-5.104c.752 0 1.395.083 1.928.248.539.165.976.392 1.312.68.341.283.592.619.752 1.008.16.384.24.797.24 1.24 0 .544-.096 1.037-.288 1.48a3.129 3.129 0 0 1-.824 1.144 3.788 3.788 0 0 1-1.336.728c-.523.17-1.12.256-1.792.256h-4.032V1.432h7.848v1.664H45.44v3.12h1.888Zm16.27-4.784V13h-2.16V5.752c0-.272.005-.557.016-.856.016-.299.048-.616.096-.952a7.489 7.489 0 0 1-.352.832 8.11 8.11 0 0 1-.36.664l-4.424 6.896c-.048.08-.107.16-.176.24-.064.08-.136.152-.216.216a1.42 1.42 0 0 1-.264.152.81.81 0 0 1-.296.056h-1.616V1.432h2.16V8.68c0 .272-.008.56-.024.864a9.01 9.01 0 0 1-.088.952c.107-.299.221-.576.344-.832.128-.256.254-.48.376-.672l4.416-6.896a1.367 1.367 0 0 1 .392-.448c.08-.064.166-.115.256-.152a.74.74 0 0 1 .304-.064h1.616ZM65.99 2.52a4.88 4.88 0 0 1 1.592-.896 6.275 6.275 0 0 1 2.056-.32c.624 0 1.187.075 1.688.224.507.15.936.36 1.288.632.352.267.622.587.808.96.192.368.288.773.288 1.216a2.95 2.95 0 0 1-.376 1.48c-.245.437-.618.792-1.12 1.064.267.128.51.28.728.456.224.17.414.363.568.576a2.4 2.4 0 0 1 .368.68c.09.245.136.507.136.784 0 .523-.098 1.01-.296 1.464a3.317 3.317 0 0 1-.848 1.184 4.06 4.06 0 0 1-1.36.8c-.538.192-1.154.288-1.848.288-.405 0-.802-.037-1.192-.112a6.239 6.239 0 0 1-2.096-.784 4.71 4.71 0 0 1-.824-.624l.632-1.032a.76.76 0 0 1 .208-.184.519.519 0 0 1 .28-.08c.139 0 .29.056.456.168.166.107.366.227.6.36.235.133.512.256.832.368.326.107.715.16 1.168.16.72 0 1.278-.155 1.672-.464.395-.31.592-.784.592-1.424a1.52 1.52 0 0 0-.16-.704 1.488 1.488 0 0 0-.456-.528 2.132 2.132 0 0 0-.72-.328 3.344 3.344 0 0 0-.928-.12h-1.632l-.008-1.728h1.488c.667 0 1.187-.13 1.56-.392.379-.267.568-.65.568-1.152a1.24 1.24 0 0 0-.536-1.056c-.352-.267-.864-.4-1.536-.4-.39 0-.725.043-1.008.128-.277.085-.52.179-.728.28a6.452 6.452 0 0 0-.52.272.735.735 0 0 1-.376.128.456.456 0 0 1-.272-.08.786.786 0 0 1-.208-.24L65.99 2.52Zm20.193-1.088V13h-2.16V7.944h-5.432V13h-2.16V1.432h2.16v4.976h5.432V1.432h2.16ZM91.4 3.144v3.208h4.048v1.656H91.4v3.272h5.136V13H89.24V1.432h7.296v1.712H91.4Zm15.217 7.128c.118 0 .222.045.312.136l.848.92a4.647 4.647 0 0 1-1.736 1.336c-.682.31-1.504.464-2.464.464-.858 0-1.632-.147-2.32-.44a5.118 5.118 0 0 1-1.752-1.224 5.406 5.406 0 0 1-1.12-1.872A7.093 7.093 0 0 1 98 7.216c0-.87.139-1.664.416-2.384a5.51 5.51 0 0 1 1.168-1.872 5.302 5.302 0 0 1 1.808-1.216c.699-.293 1.472-.44 2.32-.44.843 0 1.59.139 2.24.416.656.277 1.214.64 1.672 1.088l-.72 1a.61.61 0 0 1-.168.168.445.445 0 0 1-.272.072.555.555 0 0 1-.248-.064 7.128 7.128 0 0 1-.28-.168 6.636 6.636 0 0 0-.352-.224 2.674 2.674 0 0 0-.464-.216 3.291 3.291 0 0 0-.616-.168 3.937 3.937 0 0 0-.8-.072c-.517 0-.992.093-1.424.28a3.043 3.043 0 0 0-1.104.8 3.65 3.65 0 0 0-.72 1.28c-.17.501-.256 1.075-.256 1.72 0 .65.091 1.23.272 1.736.187.507.438.933.752 1.28a3.25 3.25 0 0 0 1.112.8 3.49 3.49 0 0 0 1.376.272c.294 0 .558-.016.792-.048.24-.032.459-.083.656-.152.203-.07.392-.157.568-.264.182-.112.36-.248.536-.408a.685.685 0 0 1 .168-.112.38.38 0 0 1 .184-.048ZM52.64 27h-2.168v-9.912h-5.024V27h-2.16V15.432h9.352V27Zm6.81-5.752c.394 0 .738-.048 1.032-.144.293-.101.536-.243.728-.424.197-.187.344-.41.44-.672a2.61 2.61 0 0 0 .144-.888c0-.31-.048-.59-.144-.84a1.66 1.66 0 0 0-.432-.64 1.882 1.882 0 0 0-.728-.4 3.355 3.355 0 0 0-1.04-.144h-1.608v4.152h1.608Zm0-5.816c.773 0 1.442.09 2.008.272.565.181 1.032.435 1.4.76.368.325.64.715.816 1.168.181.453.272.95.272 1.488 0 .56-.093 1.075-.28 1.544a3.203 3.203 0 0 1-.84 1.2c-.373.336-.843.597-1.408.784-.56.187-1.216.28-1.968.28h-1.608V27H55.69V15.432h3.76Zm11.933 7.2-1.408-3.848a8.357 8.357 0 0 1-.216-.608c-.075-.235-.15-.488-.224-.76-.07.272-.141.528-.216.768-.075.235-.147.44-.216.616l-1.4 3.832h3.68Zm3.8 4.368h-1.664a.724.724 0 0 1-.456-.136.902.902 0 0 1-.264-.352l-.864-2.36h-4.792l-.864 2.36a.767.767 0 0 1-.248.336.705.705 0 0 1-.464.152h-1.672l4.544-11.568h2.2L75.183 27Zm11.47 0h-1.952a.814.814 0 0 1-.512-.16 1.606 1.606 0 0 1-.376-.472L81.35 22.48a1.14 1.14 0 0 0-.208-.272.812.812 0 0 0-.232-.176.757.757 0 0 0-.28-.096 2.282 2.282 0 0 0-.352-.024H78.99V27h-2.152V15.432h2.152v4.848h1.088c.219 0 .408-.037.568-.112.16-.075.31-.213.448-.416l2.536-3.744c.107-.17.232-.31.376-.416a.849.849 0 0 1 .52-.16h1.84l-3.144 4.64a2.01 2.01 0 0 1-1.048.816c.32.09.59.235.808.432.224.192.438.459.64.8L86.653 27Zm9.885-9.8H93.05V27h-2.152v-9.8H87.41v-1.768h9.128V17.2Zm11.746-1.768V27h-2.16v-7.248c0-.272.005-.557.016-.856.016-.299.048-.616.096-.952a7.563 7.563 0 0 1-.352.832c-.123.25-.243.472-.36.664l-4.424 6.896c-.048.08-.107.16-.176.24-.064.08-.136.152-.216.216a1.42 1.42 0 0 1-.264.152.812.812 0 0 1-.296.056h-1.616V15.432h2.16v7.248c0 .272-.008.56-.024.864a9.11 9.11 0 0 1-.088.952c.106-.299.221-.576.344-.832.128-.256.253-.48.376-.672l4.416-6.896c.048-.08.104-.16.168-.24.069-.08.144-.15.224-.208a1.04 1.04 0 0 1 .256-.152.739.739 0 0 1 .304-.064h1.616ZM121.156 27h-1.952a.815.815 0 0 1-.512-.16 1.607 1.607 0 0 1-.376-.472l-2.464-3.888a1.13 1.13 0 0 0-.208-.272.81.81 0 0 0-.232-.176.755.755 0 0 0-.28-.096 2.281 2.281 0 0 0-.352-.024h-1.288V27h-2.152V15.432h2.152v4.848h1.088c.219 0 .408-.037.568-.112.16-.075.309-.213.448-.416l2.536-3.744c.107-.17.232-.31.376-.416a.848.848 0 0 1 .52-.16h1.84l-3.144 4.64a2.003 2.003 0 0 1-1.048.816 2 2 0 0 1 .808.432c.224.192.437.459.64.8l3.032 4.88Zm7.893-4.368-1.408-3.848a7.823 7.823 0 0 1-.216-.608c-.075-.235-.15-.488-.224-.76-.07.272-.142.528-.216.768-.075.235-.147.44-.216.616l-1.4 3.832h3.68Zm3.8 4.368h-1.664a.723.723 0 0 1-.456-.136.89.89 0 0 1-.264-.352l-.864-2.36h-4.792l-.864 2.36a.774.774 0 0 1-.248.336.706.706 0 0 1-.464.152h-1.672l4.544-11.568h2.2L132.849 27Z" fill="#282C37"/><path fill-rule="evenodd" clip-rule="evenodd" d="M16.66 15.058c-1.076.6-1.739 1.71-1.739 2.912v10.19c0 .3.165.577.435.727.27.15.6.15.869 0l9.036-5.044c1.076-.6 1.739-1.71 1.739-2.91v-10.19c0-.3-.165-.578-.435-.728a.896.896 0 0 0-.869 0l-9.036 5.043Z" fill="#287EE7"/><path fill-rule="evenodd" clip-rule="evenodd" d="M0 20.928c0 1.202.662 2.311 1.738 2.912l9.038 5.047c.27.15.6.15.869 0a.832.832 0 0 0 .434-.727V17.974c0-1.2-.663-2.31-1.738-2.911l-9.038-5.048a.895.895 0 0 0-.869 0 .836.836 0 0 0-.434.728v10.185Z" fill="#57A3FF"/><path fill-rule="evenodd" clip-rule="evenodd" d="M2.572 5.932a.913.913 0 0 0-.44.786c0 .324.168.624.44.786l9.168 5.449a3.439 3.439 0 0 0 3.525 0l9.163-5.447a.911.911 0 0 0 .44-.785.911.911 0 0 0-.44-.786L15.26.486a3.439 3.439 0 0 0-3.526 0c-2.48 1.475-6.944 4.13-9.162 5.446Z" fill="#9FCDFF"/></svg>