<svg width="97" height="82" fill="none" xmlns="http://www.w3.org/2000/svg"><path d="m77.138 18.113-13.75-13.75A1.291 1.291 0 0 0 62.501 4H31.25a3.762 3.762 0 0 0-3.75 3.75v7.563a26.216 26.216 0 0 0 0 52.374v7.563A3.762 3.762 0 0 0 31.25 79h42.5a3.762 3.762 0 0 0 3.75-3.75V19a1.291 1.291 0 0 0-.363-.887ZM63.75 8.263l9.488 9.487h-8.237a1.25 1.25 0 0 1-1.25-1.25V8.262ZM5 41.5a23.78 23.78 0 0 1 22.5-23.712v23.2L11.125 57.361A23.599 23.599 0 0 1 5.001 41.5Zm7.888 17.625L29.263 42.75h23.2a23.705 23.705 0 0 1-39.575 16.375ZM75.001 75.25a1.25 1.25 0 0 1-1.25 1.25h-42.5A1.25 1.25 0 0 1 30 75.25v-7.563A26.268 26.268 0 0 0 55 41.5a1.25 1.25 0 0 0-1.25-1.25H30V7.75a1.25 1.25 0 0 1 1.25-1.25h30v10A3.762 3.762 0 0 0 65 20.25h10v55Z" fill="#fff"/><path d="M33.75 10.25a1.25 1.25 0 0 0-1.25 1.25v25a1.25 1.25 0 0 0 1.25 1.25h25A1.25 1.25 0 0 0 60 36.5a26.28 26.28 0 0 0-26.25-26.25Zm1.25 25V12.788A23.772 23.772 0 0 1 57.462 35.25H35ZM61.25 51.5A11.25 11.25 0 1 0 72.5 62.75 11.268 11.268 0 0 0 61.25 51.5Zm0 20A8.75 8.75 0 1 1 70 62.75a8.76 8.76 0 0 1-8.75 8.75Z" fill="#fff"/><path d="m58.75 64.733-2.867-2.867-1.767 1.768 3.75 3.75a1.25 1.25 0 0 0 1.767 0l7.5-7.5-1.767-1.768-6.616 6.617ZM62.5 25.25h10v2.5h-10v-2.5Zm0 7.5h10v2.5h-10v-2.5Zm0 7.5h10v2.5h-10v-2.5Z" fill="#fff"/></svg>