<svg width="42" height="73" fill="none" xmlns="http://www.w3.org/2000/svg"><path d="M13.404 25.98c0 .56.478 1.016 1.067 1.015.589.001 1.066-.453 1.066-1.015 0-.56-.478-1.015-1.066-1.015-.59 0-1.068.454-1.067 1.015Zm1.146 3.047c-.587.043-1.027.53-.982 1.09.138 1.724.44 4.937.914 7.09.12.548.686.9 1.263.785.579-.116.946-.655.825-1.202-.465-2.116-.767-5.48-.875-6.827-.044-.56-.557-.978-1.145-.936Zm.988-9.14c-.001 2.806 2.384 5.078 5.333 5.077 2.95.001 5.336-2.27 5.334-5.077 0-2.806-2.385-5.077-5.333-5.077-2.948 0-5.334 2.27-5.334 5.077Zm8.534 0c0 1.684-1.43 3.047-3.2 3.046-1.77 0-3.201-1.36-3.2-3.046 0-1.683 1.43-3.045 3.2-3.046 1.768 0 3.2 1.362 3.2 3.046Zm-2.132 51.94-.001-8.978c0-.56-.478-1.015-1.067-1.015-.59 0-1.067.454-1.067 1.015v8.978c0 .56.478 1.015 1.067 1.015.59 0 1.067-.454 1.067-1.015Zm7.543-7.181v-8.978c0-.56-.478-1.015-1.067-1.016-.59 0-1.067.455-1.067 1.016v8.978c0 .56.478 1.015 1.067 1.015.59 0 1.067-.455 1.067-1.015Zm-16.155 1.015c.59 0 1.067-.454 1.067-1.015v-8.978c0-.56-.478-1.015-1.067-1.015-.59 0-1.067.454-1.067 1.015v8.978c0 .56.478 1.015 1.067 1.015Z" fill="#fff"/><path d="M21.666.49a1.09 1.09 0 0 0-.795-.339c-.303 0-.594.123-.795.339-3.62 3.853-10.94 14.318-10.94 25.491 0 2.4.148 4.811.438 7.18C3.944 36.76.6 42.707.6 49.184c0 1.82.267 3.622.792 5.359.296.978 1.756.973 2.05 0 1.351-4.456 4.526-8.187 8.792-10.387.37.906.766 1.733 1.18 2.465.466.825 1.328 1.378 2.315 1.514-.041.363-.063.73-.063 1.1 0 3.697 4.338 8.578 4.523 8.784a1.104 1.104 0 0 0 1.623 0c.184-.206 4.524-5.087 4.524-8.784 0-.386-.023-.768-.068-1.144.895-.193 1.641-.728 2.06-1.468.415-.733.81-1.56 1.18-2.467 4.267 2.2 7.442 5.931 8.793 10.387.298.986 1.758.963 2.05 0 .525-1.737.792-3.54.792-5.36 0-6.475-3.344-12.423-8.975-16.022.29-2.37.44-4.78.44-7.18 0-5.5-1.688-11.273-5.015-17.16-1.616-2.95-4.295-6.595-5.927-8.331ZM2.793 50.596c-.04-.469-.06-.94-.059-1.412 0-5.454 2.652-10.49 7.165-13.747.402 2.45.953 4.756 1.622 6.78-3.782 1.872-6.822 4.81-8.728 8.379Zm21.41-1.361c0 1.975-1.888 4.813-3.203 6.49-1.314-1.676-3.2-4.51-3.2-6.49 0-.36.026-.717.074-1.066h6.254c.049.349.074.705.074 1.066Zm2.245-3.575c-.164.29-.521.478-.911.478h-9.33c-.39 0-.749-.188-.914-.48a19.868 19.868 0 0 1-1.123-2.366 18.8 18.8 0 0 1 6.7-1.217 18.8 18.8 0 0 1 6.703 1.217 19.89 19.89 0 0 1-1.125 2.368Zm12.561 3.524c0 .472-.02.943-.06 1.412-1.905-3.57-4.945-6.508-8.727-8.38.668-2.023 1.22-4.328 1.622-6.78 4.513 3.259 7.165 8.294 7.165 13.748ZM30.474 25.98c0 4.955-.678 10.633-2.21 15.388a21.023 21.023 0 0 0-7.393-1.325c-2.563 0-5.045.447-7.393 1.325-1.532-4.755-2.209-10.433-2.209-15.388 0-5 1.503-10.27 4.469-15.675h10.266c2.966 5.405 4.47 10.676 4.47 15.675Zm-5.65-17.706h-7.905a47.961 47.961 0 0 1 3.952-5.518 47.92 47.92 0 0 1 3.953 5.518Z" fill="#fff"/></svg>