<svg width="64" height="69" fill="none" xmlns="http://www.w3.org/2000/svg"><path fill-rule="evenodd" clip-rule="evenodd" d="M39.49 35.828c-2.55 1.429-4.121 4.069-4.121 6.927V67a1.98 1.98 0 0 0 1.03 1.73 2.1 2.1 0 0 0 2.06 0c5.183-2.904 15.625-8.752 21.42-12C62.43 55.3 64 52.66 64 49.806V25.56c0-.714-.391-1.374-1.03-1.732a2.117 2.117 0 0 0-2.06 0c-5.178 2.903-15.62 8.752-21.42 12Z" fill="#287EE7"/><path fill-rule="evenodd" clip-rule="evenodd" d="M0 49.795c0 2.859 1.57 5.498 4.119 6.928 5.8 3.25 16.245 9.103 21.424 12.007.638.36 1.42.36 2.059 0a1.98 1.98 0 0 0 1.03-1.73V42.767c0-2.859-1.57-5.499-4.119-6.928L3.09 23.83a2.114 2.114 0 0 0-2.06 0A1.99 1.99 0 0 0 0 25.56v24.235Z" fill="#57A3FF"/><path fill-rule="evenodd" clip-rule="evenodd" d="M6.045 14.115A2.174 2.174 0 0 0 5 15.985c0 .771.399 1.484 1.045 1.87l21.73 12.964a8.125 8.125 0 0 0 8.357 0c5.881-3.51 16.469-9.825 21.718-12.959a2.17 2.17 0 0 0 1.045-1.87 2.17 2.17 0 0 0-1.045-1.87c-5.255-3.135-15.842-9.454-21.729-12.963a8.125 8.125 0 0 0-8.357 0L6.044 14.115Z" fill="#9FCDFF"/></svg>