<svg width="35" height="38" fill="none" xmlns="http://www.w3.org/2000/svg"><path fill-rule="evenodd" clip-rule="evenodd" d="M21.596 19.732a4.387 4.387 0 0 0-2.254 3.814V36.9c0 .394.214.757.564.952.349.199.777.199 1.126 0l11.714-6.609C34.141 30.455 35 29.002 35 27.43V14.077c0-.394-.214-.757-.563-.954a1.15 1.15 0 0 0-1.127 0c-2.832 1.599-8.542 4.82-11.714 6.609Z" fill="#6CA7EF"/><path fill-rule="evenodd" clip-rule="evenodd" d="M0 27.423c0 1.575.859 3.029 2.253 3.816l11.716 6.612c.349.199.777.199 1.126 0 .349-.195.563-.559.563-.952V23.553a4.388 4.388 0 0 0-2.252-3.815L1.689 13.123a1.15 1.15 0 0 0-1.126 0c-.348.197-.563.56-.563.954v13.346Z" fill="#A5CBF9"/><path fill-rule="evenodd" clip-rule="evenodd" d="M3.334 7.774a1.2 1.2 0 0 0-.57 1.03c0 .424.217.817.57 1.029l11.884 7.14c1.414.85 3.156.85 4.57 0 3.217-1.933 9.007-5.41 11.878-7.137.354-.212.57-.605.57-1.03 0-.425-.216-.817-.57-1.03C28.792 6.05 23.002 2.57 19.782.638a4.417 4.417 0 0 0-4.57 0L3.334 7.774Z" fill="#C2DFFF"/></svg>