<svg width="52" height="83" viewBox="0 0 52 83" fill="none" xmlns="http://www.w3.org/2000/svg">
<path d="M46.6561 10.495C46.2444 9.96697 45.472 9.86526 44.9311 10.2674C44.3904 10.6694 44.2861 11.4234 44.6981 11.9513C47.8336 15.969 49.4907 20.7699 49.4907 25.8347C49.4907 31.1616 47.5778 36.3512 44.1041 40.4474C43.5438 41.1081 42.9498 41.8135 42.3886 42.5342L38.8694 47.0528C36.9349 49.5365 35.5282 52.306 34.6798 55.298H31.7545V54.2054C31.7545 53.1091 31.2014 52.0845 30.2752 51.4649C30.0188 51.2934 29.8657 51.0098 29.8657 50.7064V48.3519H31.529C33.8036 48.3519 35.6542 46.5453 35.6542 44.3249C35.6542 42.1046 33.8038 40.2981 31.529 40.2981C29.2544 40.2981 27.4038 42.1046 27.4038 44.3249V45.9489H24.5954V44.3249C24.5954 42.1044 22.745 40.2981 20.4702 40.2981C18.1956 40.2981 16.345 42.1047 16.345 44.3251C16.345 46.5456 18.1956 48.3519 20.4702 48.3519H22.1337V50.7064C22.1337 51.0098 21.9806 51.2934 21.7243 51.4649C20.798 52.0844 20.2449 53.1091 20.2449 54.2054V55.298H17.3194C16.4713 52.306 15.0644 49.5365 13.13 47.0528L9.54568 42.4507C8.99822 41.7477 8.42302 41.0672 7.92688 40.4845C4.40755 36.3519 2.48342 31.1106 2.50888 25.7262C2.53795 19.5936 5.04022 13.8315 9.55488 9.50124C14.0725 5.16804 20.0228 2.8312 26.3108 2.9052C31.7017 2.97343 36.7498 4.77422 40.9093 8.11332C41.4343 8.535 42.2099 8.46102 42.6418 7.94835C43.0737 7.43585 42.9979 6.67864 42.4729 6.25711C37.9422 2.62028 32.2137 0.576365 26.3425 0.502373C19.3974 0.410283 12.8189 3.00145 7.82942 7.78709C2.84302 12.5698 0.0791507 18.9368 0.0471507 25.7151C0.0190173 31.6635 2.14502 37.4543 6.03368 42.0206C6.51328 42.5839 7.06835 43.2406 7.58595 43.9051L11.1702 48.5071C12.7862 50.5821 13.992 52.879 14.7689 55.351C13.825 55.5604 13.1178 56.3845 13.1178 57.3684V62.0213C13.1178 63.1191 13.9985 64.0178 15.1062 64.0853V65.6638C15.1062 66.3275 15.6573 66.8653 16.337 66.8653C17.0168 66.8653 17.5678 66.3275 17.5678 65.6638V64.0918H34.4309V70.9878L31.8365 74.2652H20.162L17.5642 70.9837C17.5166 70.3624 16.9854 69.8726 16.3369 69.8726C15.6572 69.8726 15.1061 70.4104 15.1061 71.0741C15.1061 71.547 15.2692 72.0139 15.5658 72.3887L18.2922 75.8329C18.634 76.2645 19.1381 76.5494 19.6842 76.6368C19.8505 79.8971 22.6194 82.5 25.9998 82.5C29.3802 82.5 32.1491 79.8973 32.3149 76.6368C32.861 76.5494 33.3653 76.2645 33.7071 75.8327L36.4337 72.3883C36.7298 72.0137 36.893 71.547 36.893 71.074V64.085C38.0009 64.0178 38.8816 63.1191 38.8816 62.0211V57.3683C38.8816 56.3844 38.1742 55.5601 37.2303 55.3508C38.0074 52.879 39.2133 50.5819 40.8291 48.5069L44.3484 43.9884C44.8811 43.3041 45.4566 42.6208 46.0005 41.9794C49.8388 37.4531 51.9525 31.7193 51.9525 25.8345C51.9525 20.2392 50.1212 14.9347 46.6561 10.495ZM29.8658 44.3251C29.8658 43.4297 30.6119 42.7013 31.5292 42.7013C32.4465 42.7013 33.1926 43.4297 33.1926 44.3253C33.1926 45.2206 32.4465 45.9491 31.5292 45.9491H29.8658V44.3251ZM25.9998 80.097C23.9882 80.097 22.3309 78.5877 22.1538 76.6682H29.8456C29.6688 78.5877 28.0114 80.097 25.9998 80.097ZM22.7067 54.2054C22.7067 53.9022 22.8597 53.6187 23.1161 53.4471C24.0423 52.8273 24.5954 51.8027 24.5954 50.7064V48.3519H27.4038V50.7064C27.4038 51.8027 27.9569 52.8272 28.8834 53.4471C29.1397 53.6187 29.2926 53.9022 29.2926 54.2054V55.298H22.7065V54.2054H22.7067ZM20.4705 45.9491C19.5532 45.9491 18.807 45.2207 18.807 44.3251C18.807 43.4297 19.5532 42.7013 20.4705 42.7013C21.3877 42.7013 22.1338 43.4297 22.1338 44.3251V45.9491H20.4705ZM36.4198 61.6886H15.5798V57.7011H36.4198V61.6886Z" fill="white"/>
</svg>
